<svg version="1.2" xmlns="http://www.w3.org/2000/svg" viewBox="0 0 2763 508"><path class="a" d="m244.6 146.8c-2.4 0.2-5.8 0.6-7.6 0.9-1.9 0.3-6.3 1.2-9.9 2.1-3.5 0.8-10.2 2.8-14.7 4.4-4.6 1.5-13.3 4.5-19.5 6.6-6.1 2.1-12.5 4.1-14.3 4.5-2.7 0.6-3.6 0.6-6.9 0-2.1-0.4-9-2.4-15.4-4.6-6.4-2.2-14.9-5.1-18.8-6.4-3.9-1.4-9.6-3.1-12.5-3.9-3-0.7-7.5-1.6-10.1-2-2.6-0.4-6.7-0.7-9.2-0.7-2.6 0-6.6 0.2-9 0.5-2.4 0.2-6.8 0.9-9.7 1.5-3 0.6-8 1.9-11.2 3-3.5 1.1-8.7 3.3-12.9 5.5-4 2-9.2 4.9-11.7 6.6-2.4 1.6-5.8 4.1-7.6 5.5-1.7 1.3-5 4.3-7.3 6.6-2.3 2.3-5.7 5.9-7.6 8.1-1.8 2.2-4.5 5.8-5.9 7.9-1.3 2-3.6 5.6-4.9 7.8-1.3 2.2-2.9 5.2-3.7 6.7-0.7 1.5-2.4 5.3-3.7 8.5-1.2 3.2-3 8.3-3.9 11.4-0.9 3-2.1 8.1-2.7 11.1-0.7 3.1-1.5 7.9-1.9 10.8-0.4 3.1-0.8 10-0.9 17.4-0.2 7.8-0.1 14.8 0.3 19 0.2 3.7 0.9 9.5 1.4 13 0.4 3.4 1.5 9.6 2.4 13.8 0.8 4.2 2.4 10.6 3.4 14.3 1 3.7 2.9 10.1 4.2 14.1 1.4 4.1 4 11.2 5.9 15.9 1.8 4.7 5.4 12.7 7.9 17.9 2.5 5.1 6.1 12.1 8.1 15.4 1.9 3.3 5.3 8.7 7.5 12.1 2.2 3.3 6.5 9.4 9.7 13.6 3.1 4.2 7.7 10.1 10.3 13.2 2.6 3 6.7 7.6 9.1 10 2.5 2.4 6 5.6 7.9 7.1 1.8 1.5 5 3.8 7.1 5.2 2.1 1.3 5.5 3.2 7.6 4.1 2.1 0.9 5.2 2 6.9 2.5 2.5 0.6 4.8 0.8 10.1 0.8 5.1 0 7.9-0.2 10.7-0.8 2.1-0.5 6.3-1.7 9.4-2.6 3.1-1 8.6-3 12.3-4.4 3.7-1.5 9-3.3 11.9-4.2 2.8-0.9 7.3-2 9.9-2.5 2.7-0.5 7.4-1.1 10.5-1.3 3.5-0.3 7.7-0.3 10.6-0.1 2.7 0.2 6.3 0.6 7.9 0.9 1.5 0.3 4.8 1 7.1 1.6 2.3 0.6 6.3 1.8 8.7 2.6 2.5 0.8 7.1 2.6 10.3 3.9 3.2 1.2 8.1 3 11 3.8 2.8 0.8 7.1 1.8 9.6 2.2 2.4 0.4 6.6 0.7 9.4 0.7 2.7 0 6.6-0.3 8.7-0.7 2.1-0.4 5.2-1.3 6.9-1.9 1.7-0.6 4.3-1.7 5.8-2.4 1.5-0.8 4.3-2.4 6.3-3.7 1.9-1.3 5.1-3.6 6.9-5.2 1.8-1.6 4.8-4.4 6.7-6.2 1.8-1.9 5.2-5.7 7.6-8.5 2.3-2.9 6.5-8.2 9.2-11.9 2.7-3.7 6.8-9.4 9-12.7 2.2-3.3 5.5-8.6 7.3-11.6 1.8-3.1 4.8-8.7 6.7-12.6 1.9-3.8 4.4-9 5.5-11.6 1.1-2.6 3.2-7.9 4.7-11.9 1.5-4 2.7-7.4 2.7-7.5 0-0.1-1.5-1-3.4-1.8-1.9-0.9-5.4-2.8-7.7-4.2-2.4-1.3-6.3-4-8.7-5.8-2.5-1.9-6.6-5.4-9.1-7.9-2.6-2.4-5.9-6-7.5-7.8-1.5-1.9-4.1-5.4-5.8-7.8-1.6-2.5-4-6.7-5.4-9.4-1.3-2.7-3.2-7.4-4.2-10.3-0.9-3-2.1-7.4-2.6-9.8-0.5-2.5-1.2-6.3-1.4-8.5-0.3-2.2-0.5-7.7-0.5-12.1 0-5 0.3-10 0.7-13.2 0.4-2.8 1.3-7.3 2-10 0.7-2.8 1.8-6.3 2.4-7.9 0.6-1.6 1.6-4.1 2.3-5.6 0.7-1.4 2.3-4.4 3.6-6.7 1.3-2.2 3.6-5.7 5.1-7.8 1.6-2.1 4.9-5.9 7.4-8.4 2.4-2.6 6.5-6.3 8.9-8.3 2.5-1.9 6.3-4.7 8.5-6.2 2.2-1.5 4.1-2.7 4.2-2.8 0-0.1-1.1-1.8-2.5-3.7-1.5-1.9-4.4-5.3-6.6-7.6-2.2-2.3-5.8-5.7-8-7.5-2.2-1.8-5.8-4.3-7.9-5.7-2-1.3-6-3.6-8.7-4.9-2.7-1.4-6.7-3.2-8.9-4-2.2-0.9-6.3-2.2-9-3-2.7-0.7-6.8-1.7-9.1-2.2-2.4-0.5-6.9-1.2-10.1-1.6-3.2-0.4-7.5-0.7-9.6-0.8-2.1-0.1-5.7 0-8 0.1zm6.2-96.3c-1.8 0.3-4.7 0.9-6.5 1.3-1.7 0.5-5.1 1.5-7.6 2.4-2.4 0.8-6.7 2.6-9.6 3.9-2.8 1.4-7 3.6-9.4 5-2.3 1.4-6.1 4-8.5 5.7-2.3 1.8-5.7 4.6-7.5 6.3-1.8 1.7-4.9 5-6.9 7.3-1.9 2.4-5.1 6.6-6.9 9.4-1.9 2.9-4.7 7.7-6.2 10.8-1.5 3-3.6 7.9-4.6 10.7-0.9 2.8-2.1 7-2.6 9.4-0.5 2.3-1.2 6.3-1.5 8.9-0.3 2.6-0.4 6.8-0.4 9.5 0.1 2.6 0.4 4.9 0.6 5.1 0.2 0.2 2.9 0.4 6 0.3 3.7 0 7.2-0.4 10.2-1 2.4-0.5 6.2-1.5 8.5-2.3 2.2-0.8 5.8-2.3 8-3.4 2.2-1.1 5.9-3.3 8.3-4.8 2.3-1.6 6.1-4.5 8.5-6.4 2.3-2 6.2-5.7 8.7-8.2 2.4-2.6 6-6.7 7.9-9.2 1.8-2.4 4.4-6.1 5.7-8.2 1.3-2.1 3.5-5.9 4.7-8.5 1.3-2.6 3.2-7 4.2-9.8 0.9-2.9 2.2-7.1 2.7-9.4 0.5-2.3 1.1-6.5 1.4-9.2 0.3-2.7 0.4-7.4 0.3-10.5l-0.1-5.6c-3.1-0.1-5.5 0.1-7.4 0.5z"/><path class="a" d="m460.9 406.5q-43.6 0-63.4-22.7-19.7-22.8-12.8-60.8 5-27.7 21.4-45.8 17.5-18.8 45.5-28 28.4-9.9 67.7-9.9h51.5l4.4-24.2q4.9-26.6-7.1-40.7-11.5-14.8-42.2-14.8-24.4 0-42.7 11-18 10.9-31.7 27.8l-27.5-30.1q17.5-23.2 45.6-38.6 28.2-15.6 68-15.6 53.3 0 77.2 25.8 24.9 25 16.5 71.1l-26.1 143.2h30l-8.4 45.8h-30.8q-22.1 0-31.9-11.3-9.5-12.2-9.5-30.9v-4.5h-2.9q-12.7 26.1-36.9 39.7-23.8 13.5-53.9 13.5zm22.3-42.9q18.9 0 34.2-5.6 15.8-5.9 26.1-16.2 10.6-10.5 13.1-24.2l7.5-41.6h-50.9q-32.2 0-49.4 9.8-17.2 9.9-20.7 28.8l-1.8 10.2q-3.4 18.7 8 28.9 11.5 9.9 33.9 9.9zm189.2 144.1h-55.3l70.5-387.2h55.3l-8.4 46h2.3q13.8-25.5 36.9-39 24-13.4 52.2-13.4 35.3 0 56.9 17.7 21.8 17.3 29.1 50.1 7.4 32.5-1 78.3-8.2 45.4-27.5 78.4-19.3 32.9-47.5 50.6-27.9 17.3-63.2 17.3-28.2 0-46.8-13.5-17.5-14-23.2-39h-2.3zm92.2-148.6q31.9 0 54.1-20.4 23.2-20.9 29.3-54.4l8.7-48q6.2-33.7-9.6-53.8-14.6-21-46.6-21-17.9 0-34.2 6.4-15.8 6.2-26.8 17.3-10.4 10.9-13.1 25.6l-17.6 96.8q-3 16.2 3.4 27.8 6.8 11.5 20.4 17.8 14 5.9 32 5.9zm175.9 148.6h-55.2l70.4-387.1h55.3l-8.4 45.9h2.4q13.8-25.5 36.9-38.9 23.9-13.5 52.1-13.5 35.4 0 56.9 17.8 21.8 17.2 29.1 50 7.4 32.5-0.9 78.3-8.3 45.4-27.6 78.5-19.2 32.8-47.4 50.6-27.9 17.2-63.3 17.2-28.2 0-46.7-13.5-17.6-14-23.3-38.9h-2.3zm92.2-148.6q32 0 54.2-20.5 23.1-20.8 29.3-54.4l8.7-47.9q6.1-33.8-9.6-53.9-14.7-21-46.6-21-18 0-34.2 6.5-15.9 6.1-26.9 17.2-10.4 11-13.1 25.7l-17.6 96.7q-2.9 16.2 3.4 27.9 6.9 11.5 20.5 17.7 14 6 31.9 6zm234.7 40.9h-37.5q-28.4 0-40-15.1-11.4-15.1-6.8-40.6l62.4-342.8h55.3l-64.2 352.7h39.1zm116.3 6.5q-39.5 0-65.2-17.8-25.4-18.3-35.4-51.2-9.4-32.8-1.3-77.3 8-44.4 29.3-76.7 21.7-33.2 53.5-51.1 31.9-18.3 71.2-18.3 40.4 0 64.4 18.8 24.4 18 32.5 49.6 8.8 31.2 1.7 70.1l-3.9 21.6h-193.7l-1.8 10q-6.1 33.4 9.2 55 16.2 21.3 52.7 21.3 26 0 46.2-11.6 20.5-11.7 35.8-31.6l28 31.2q-19.9 25.8-52.5 42.4-31.6 15.6-70.7 15.6zm-39.4-173.4l-0.7 3.9h135.3l1-5.5q4.1-22.3-0.8-38.8-4.7-16.5-18-25.3-12.6-9.7-32.7-9.7-20.8 0-38.9 9.7-17.2 9.5-29.7 26.9-11.5 16.7-15.5 38.8zm235.7 166.9h-55.3l50.8-279.5h55.3l-8.4 46.2h2.5q12.6-21.9 32.6-37 20.3-15.6 52.2-15.6 28 0 47.7 14 19.9 13.3 25.1 42.7h1.3q11.7-23 36-39.5 24.9-17.2 59.4-17.2 42 0 59.7 28.5 18.5 28 9.1 79.5l-32.4 177.9h-55.3l31.1-170.7q6.1-33.6-3.7-50.6-9.6-17.2-37.4-17.2-15.1 0-29.9 5.3-14.4 5.2-25 16.2-10.1 10.9-13.1 27.5l-34.5 189.5h-55.3l31.1-170.7q6.1-33.9-3.9-50.6-9.6-17.2-36.6-17.2-14.9 0-29.7 5.3-14.7 5.2-25.5 16.2-10.4 10.9-13.5 27.5zm456.8 6.4q-42.7 0-62.6-28-19.1-28.3-9.7-79.9l32.4-178h55.3l-31.1 170.7q-6 33.4 4.5 50.6 11 17.2 39 17.2 15.6 0 30.3-4.8 15.4-5.8 26.2-16.7 11-11 14-27.6l34.5-189.4h55.3l-50.9 279.5h-55.3l8.4-46h-2.3q-11.5 20.5-32.8 36.8-20.2 15.6-55.2 15.6zm260.4 0q-39.1 0-63.8-14-23.9-14.5-39.4-39.1l42-32.3q12.3 18.8 29.7 30 17.5 10.4 42.8 10.4 26.2 0 41.1-9.9 15.4-10.8 18.8-29.3 2.6-14.3-5.3-24-7.1-9.7-29.8-12.9l-24.3-3.5q-26.8-3.9-46.1-13.2-18.7-9.7-27-26.4-8-17.3-3.3-42.9 7.5-41.3 39.9-63.2 33.1-22.1 78.3-22.1 25 0 42.1 5.4 17.9 5.2 30 15.6 13.2 9.5 22.8 23.5l-40.2 32.9q-8.2-13.1-24.3-22.5-15.4-9.8-39.3-9.8-24.2 0-38.8 9.8-13.6 9.9-16.7 26.8-3.1 17 6.1 25.5 10.2 8.2 32.5 12l24.3 3.6q45.1 6.6 62 26.9 17.2 20.1 11.1 53.5-4.9 26.9-21.8 47.2-16.9 19.9-44 31.3-26 10.7-59.4 10.7zm185.4-6.4h-55.3l50.9-279.5h55.2zm33-333q-17.1 0-23.9-7.9-6.1-8.6-3.8-21.4l1.6-8.6q2.3-12.9 11.4-20.6 9.9-8.6 26.9-8.6 17.4 0 23.2 8.6 6.9 7.7 4.5 20.6l-1.6 8.6q-2.3 12.8-12.1 21.4-8.8 7.9-26.2 7.9zm109.7 339.4q-60.4 0-86.8-39.3-25.4-39.8-13.2-107 12.2-67.1 52-106.2 40.8-39.9 101.2-39.9 42 0 64.7 18.9 23.4 18.5 29.9 49.2l-49.5 21.5q-2.7-19.7-16.6-31.4-13.1-11.7-37-11.7-33.6 0-54.7 21.4-20.9 20.4-27 53.8l-9 49.2q-5.9 32.9 7.4 54.2 13.4 20.8 47 20.8 25.5 0 44.1-12.2 18.8-12.7 32.2-34.1l37.3 23q-19.7 33.2-51 51.5-30.7 18.3-71 18.3z"/></svg>