<svg version="1.2" xmlns="http://www.w3.org/2000/svg" viewBox="0 0 2227 512" width="2227" height="512">
	<title>Apple music</title>
	<style>
		.s0 { fill: #ffffff } 
	</style>
	<path id="Path 0" class="s0" d="m504.1 256.9l-0.1 247.6h69.7c0-364.1 0-364.5 1.2-364.5 0.7 0 1.3 0.2 1.3 0.5 0.1 0.3 33.6 82.3 74.4 182.2l74.2 181.8h57.1c133.8-327.3 149.2-364.5 150-364.5 1 0 1 9.1 1 182.2v182.3h70.1l-0.1-495.2-89 0.3c-155.4 385.1-159.2 394.3-160.5 394.1-1.2-0.2-8.4-17.7-81-197.2l-79.6-196.9-88.5-0.3zm1537.3-120c-1.6 0-6.2 0.4-10.3 0.7-4 0.4-10.9 1.3-15.3 2.1-4.4 0.8-11.4 2.4-15.6 3.6-4.2 1.2-10.4 3.2-13.8 4.4-3.4 1.3-9.9 4.1-14.5 6.4-4.5 2.2-11.8 6.4-16.1 9.3-4.4 2.9-10.9 7.8-14.5 10.8-3.5 3.1-8.6 7.9-11.2 10.6-2.6 2.7-6.5 7.2-8.7 10-2.2 2.7-5.7 7.5-7.7 10.5-2.1 3.1-5.4 8.5-7.3 12.1-2 3.6-5.1 9.8-7 13.8-1.8 4.1-4.7 11.6-6.4 16.8-1.7 5.2-3.8 12.2-4.6 15.6-0.8 3.4-2.1 9.8-3 14.2-0.8 4.3-1.8 11.6-2.4 16.2-0.5 4.5-1.1 15.2-1.3 23.8-0.2 9.8 0 19.2 0.4 25.3 0.4 5.4 1.2 13.6 1.9 18.3 0.6 4.7 1.7 10.9 2.3 13.8 0.6 2.9 1.8 8.1 2.6 11.5 0.9 3.4 2.5 9.1 3.7 12.7 1.1 3.5 3.2 9.4 4.7 12.9 1.4 3.6 4.3 9.8 6.4 13.9 2 4 5.2 9.7 7 12.6 1.8 2.9 5.6 8.4 8.4 12.1 2.8 3.7 8.6 10.2 12.8 14.5 4.2 4.2 9.8 9.4 12.4 11.4 2.6 2.1 7.5 5.6 10.9 7.8 3.4 2.3 8.3 5.2 10.9 6.7 2.6 1.4 7.4 3.7 10.7 5.2 3.3 1.5 9.2 3.8 13 5.1 3.8 1.3 10.6 3.3 15.1 4.4 4.6 1.1 11.8 2.6 16.2 3.2 4.4 0.6 11.3 1.4 15.3 1.7 4.1 0.3 12.4 0.5 18.6 0.3 6.1-0.1 14.9-0.6 19.4-1.1 4.5-0.6 11.4-1.6 15.3-2.4 3.9-0.8 10.4-2.4 14.5-3.5 4-1.2 10.2-3.3 13.8-4.7 3.6-1.4 9.2-3.9 12.6-5.6 3.5-1.7 8.5-4.4 11.2-6.1 2.8-1.7 8.1-5.3 11.8-8.1 3.7-2.8 9.7-8 13.3-11.5 3.5-3.5 8.1-8.5 10.2-11.1 2.1-2.6 5.6-7.5 7.9-10.9 2.2-3.4 5.9-9.9 8.1-14.4 2.2-4.6 5.2-11.7 6.6-15.9 1.5-4.3 3.3-10.7 4.2-14.5 0.8-3.7 1.9-9.5 2.4-12.8 0.5-3.3 0.9-6.1 0.9-6.3 0-0.2-16-0.3-35.6-0.3h-35.7c-0.9 3.9-1.7 6.9-2.3 9.1-0.6 2.3-1.8 5.9-2.7 8-0.8 2.1-2.8 6.2-4.3 9.1-1.5 2.9-4.3 7.4-6.2 10-1.9 2.6-5.4 6.6-7.7 8.8-2.3 2.3-6.2 5.5-8.6 7.2-2.4 1.7-7.4 4.5-11.1 6.3-3.8 1.8-9.2 3.9-12.1 4.7-2.9 0.9-7.8 2-10.9 2.6-4 0.7-8.9 1-17.1 1-7 0-13.2-0.3-15.9-0.7-2.4-0.5-6.8-1.5-9.7-2.2-2.9-0.8-7.5-2.4-10.3-3.5-2.8-1.2-7.1-3.3-9.7-4.8-2.6-1.6-6.3-4-8.3-5.5-1.9-1.4-5.2-4.3-7.2-6.2-2.1-2-5.3-5.4-7.2-7.7-1.8-2.3-4.7-6.2-6.4-8.8-1.7-2.6-4.7-7.9-6.6-11.8-1.9-3.9-4.6-10.6-6.1-15-1.4-4.4-3.2-11-4.1-14.7-0.8-3.8-1.9-9.6-2.4-13-0.4-3.4-1.2-9.9-1.5-14.4-0.4-5-0.6-13.6-0.4-21.8 0.2-7.5 0.8-16.9 1.3-20.9 0.5-4.1 1.6-10.6 2.4-14.4 0.7-3.9 2.3-10.2 3.5-14 1.1-3.8 3.4-10.1 5-13.9 1.7-3.8 4.4-9.3 6.1-12.2 1.6-2.9 4.6-7.4 6.5-10 1.9-2.6 6.1-7.4 9.4-10.6 3.3-3.3 8.4-7.5 11.6-9.6 3-2.1 7.7-4.8 10.3-6 2.6-1.2 6.7-2.9 9.1-3.8 2.4-0.8 7.1-2 10.3-2.8 5-1.1 7.7-1.3 18.6-1.3 9.9 0 13.8 0.2 18.2 1 3.1 0.6 8.1 1.9 11.2 2.9 3.1 1 7.7 2.8 10.3 4 2.6 1.2 7.2 3.9 10.3 6 3.2 2.1 8.1 6.1 11.2 9.3 3.3 3.3 7.3 8 9.6 11.5 2.1 3.2 5.1 8.4 6.5 11.5 1.4 3.1 3.4 8.2 4.4 11.5 1 3.2 2.1 7 2.4 8.4l0.6 2.5h70.7c-0.5-4.8-1-8.6-1.5-11.5-0.5-2.9-1.8-8.8-2.9-13-1.1-4.2-3.2-10.7-4.6-14.4-1.4-3.7-4-9.6-5.7-13-1.7-3.4-4.4-8.3-6.1-10.9-1.6-2.5-4.8-7.2-7.1-10.3-2.3-3-7-8.4-10.4-12-3.4-3.5-8.5-8.4-11.4-10.8-3-2.5-8.5-6.6-12.4-9.1-3.9-2.6-11.3-6.8-16.5-9.3-5.3-2.6-13.3-6-18.3-7.6-4.8-1.6-11.8-3.6-15.6-4.5-3.7-0.8-10-2-14.1-2.6-4-0.7-11.9-1.4-17.4-1.8-5.5-0.3-11.8-0.5-14.1-0.4-2.3 0.1-5.4 0.2-7.1 0.3zm-488.7 0.5c-1 0.1-4.6 0.5-8 0.9-3.4 0.3-9.5 1.2-13.5 2-4.1 0.8-10.7 2.3-14.7 3.4-4.1 1.1-10.6 3.3-14.5 4.8-3.9 1.5-9.7 4.1-12.9 5.8-3.3 1.7-9 5.1-12.7 7.5-3.7 2.5-9.1 6.7-12.1 9.2-2.9 2.6-7.2 7-9.7 9.8-2.4 2.9-5.8 7.4-7.6 10-1.8 2.7-4.5 7.3-6 10.4-1.5 3.1-3.7 8.4-4.8 11.8-1.2 3.4-2.7 9-3.5 12.4-1.1 5.4-1.3 7.8-1.3 20.6 0 12.6 0.2 15.1 1.3 20.3 0.7 3.2 2 8 2.8 10.6 0.9 2.6 2.6 6.9 3.9 9.7 1.3 2.8 4 7.5 6.1 10.6 2 3.1 5.8 7.8 8.3 10.5 2.6 2.8 6.6 6.6 9.1 8.5 2.4 2 7.2 5.4 10.6 7.6 3.4 2.3 9.3 5.7 13.2 7.6 3.9 1.8 9.7 4.4 13 5.7 3.2 1.3 8.9 3.3 12.6 4.5 3.8 1.2 10.9 3.2 15.9 4.5 5.1 1.2 20.6 4.9 34.5 8.2 13.9 3.3 28.9 6.9 33.3 8 4.3 1.1 10.7 2.9 14.1 4.1 3.4 1.2 8.6 3.4 11.5 4.9 2.9 1.5 7 4.1 9 5.7 2.1 1.6 4.8 4.3 6 5.9 1.2 1.6 3.1 4.6 4.1 6.8 1 2.1 2.2 6.1 2.7 9.1 0.7 3.5 0.9 7 0.7 10.3-0.2 2.7-0.8 6.7-1.3 8.8-0.6 2.1-2 5.8-3.3 8.3-1.2 2.4-3.9 6.2-6 8.4-2 2.3-5.3 5.2-7.2 6.6-2 1.4-5.5 3.4-7.8 4.6-2.4 1.2-6.6 2.9-9.4 3.9-2.9 1-7.7 2.3-10.8 2.9-3.1 0.6-8.2 1.4-11.3 1.8-3.2 0.3-9.7 0.6-14.6 0.6-4.9 0-11.4-0.3-14.6-0.6-3.1-0.3-8.5-1.2-11.9-2-3.4-0.8-8.4-2.2-11.2-3.2-2.7-1-7.1-3-9.7-4.5-2.6-1.5-6.6-4.2-8.8-6.1-2.3-1.8-5.7-5.3-7.6-7.7-1.9-2.5-4.4-6.2-5.6-8.3-1.1-2.1-2.9-5.8-3.8-8.2-1-2.4-2.3-6.7-3-9.5-0.7-2.8-1.5-5.3-1.7-5.6-0.3-0.3-16.7-0.5-36.4-0.5-19.7 0.1-36.1 0.3-36.3 0.5-0.2 0.2-0.1 2.9 0.4 5.8 0.4 3 1.5 8.5 2.4 12.2 0.9 3.8 2.5 9.2 3.5 12.1 1.1 2.9 3.4 8.5 5.3 12.4 2 3.9 5 9.3 6.8 12 1.9 2.8 4.8 6.8 6.5 8.9 1.7 2.1 5.3 6 8 8.7 2.7 2.7 7.1 6.6 9.6 8.6 2.6 2.1 7 5.2 9.8 7 2.7 1.7 7.2 4.4 10 5.9 2.7 1.5 7.9 3.9 11.5 5.3 3.5 1.5 9 3.4 12 4.4 3.1 1 8.3 2.5 11.5 3.3 3.2 0.8 8.2 1.9 10.9 2.4 2.8 0.5 8.1 1.3 11.8 1.8 3.7 0.5 12.2 1.2 18.8 1.5 8.9 0.5 15 0.5 23.3 0 6.1-0.4 14.9-1.2 19.4-1.9 4.6-0.6 11.3-1.8 15-2.7 3.8-0.8 9.8-2.4 13.4-3.5 3.7-1.1 9.3-3 12.5-4.3 3.3-1.3 8.9-3.9 12.6-5.7 3.6-1.8 8.7-4.6 11.3-6.2 2.6-1.7 6.7-4.5 9.1-6.3 2.4-1.8 6.9-5.7 9.9-8.6 3.1-2.9 7.1-7.2 9-9.4 1.8-2.3 4.8-6.4 6.6-9.2 1.8-2.7 4.4-7.2 5.7-10 1.4-2.7 3.5-8 4.8-11.8 1.2-3.7 2.6-8.8 3.2-11.4 0.5-2.6 1.2-8.2 1.6-12.4 0.5-5.8 0.5-9.8 0-16.5-0.4-4.8-1.2-11.2-1.9-14.1-0.6-2.9-1.8-7.4-2.6-10-0.9-2.6-2.8-7.1-4.2-10-1.5-3-4.3-7.6-6.4-10.3-2.1-2.8-6.1-7.3-9-10.1-2.8-2.7-8.1-6.9-11.7-9.3-3.5-2.4-9.4-5.8-12.9-7.6-3.6-1.8-9.3-4.4-12.7-5.7-3.4-1.4-9.9-3.8-14.4-5.2-4.6-1.5-11.3-3.5-15-4.5-3.8-1-21.9-5.2-40.4-9.5-18.4-4.2-36.2-8.5-39.4-9.4-3.3-0.9-8.2-2.6-10.9-3.7-2.8-1.1-6.2-2.6-7.7-3.3-1.4-0.8-4.7-2.8-7.3-4.5-2.6-1.7-6.3-4.8-8.3-6.8-1.9-2.1-4.4-5.2-5.4-7-1-1.8-2.4-5.2-3.2-7.7-1.1-3.5-1.4-5.7-1.3-11.2 0-4.4 0.3-8 1-10.6 0.5-2.1 2-5.9 3.3-8.5 1.6-3.3 3.6-6.1 6.6-9.4 2.5-2.6 6.1-5.9 8.2-7.3 2.1-1.4 5.9-3.5 8.5-4.8 2.6-1.2 7.1-2.9 10-3.8 2.9-0.8 7.7-2 10.6-2.5 4-0.8 8.5-1 18.3-1 11 0 13.8 0.2 18.9 1.3 3.4 0.7 8.5 2.2 11.5 3.2 3 1.1 7.2 2.9 9.3 4.1 2.1 1.2 5.2 3.1 6.8 4.3 1.6 1.1 4.6 3.7 6.7 5.8 2 2 4.8 5.2 6.2 7.2 1.4 1.9 3.8 6 5.3 9.1 1.7 3.5 3.3 8 4.2 12.1 0.9 3.5 1.6 7 1.8 7.8l0.2 1.3h69.5q-0.6-5.1-0.9-8.5c-0.2-2.3-0.9-7-1.6-10.4-0.6-3.4-2.2-9.3-3.5-13.2-1.3-3.9-3.6-9.7-5.2-13-1.5-3.2-4.5-8.4-6.5-11.4-2-3.1-5.2-7.5-7-9.8-1.9-2.2-5.9-6.5-8.9-9.4-3.1-2.9-7.2-6.5-9.1-8-1.9-1.5-5.8-4.2-8.5-6-2.8-1.8-8-4.7-11.5-6.5-3.6-1.8-8.9-4.2-11.8-5.4-2.9-1.1-7.8-2.9-10.9-3.8-3.1-1-8.5-2.4-12.1-3.2-3.5-0.8-10.1-2-14.7-2.7-6.7-1.1-11.4-1.3-25.9-1.5-9.7-0.1-18.5-0.1-19.4 0.1zm236.7-136.5c-2.3 0.6-5.7 1.9-7.7 2.9-1.9 0.9-4.8 2.6-6.4 3.7-1.6 1.1-4.2 3.2-5.6 4.7-1.5 1.5-3.5 3.8-4.5 5.3-1 1.4-2.7 4.4-3.8 6.5-1 2.1-2.4 5.8-3 8.2-0.7 2.8-1.1 6.5-1.1 9.9 0 3 0.4 7.3 0.9 9.7 0.6 2.3 2.2 6.8 3.7 9.9 2.3 4.8 3.4 6.3 8 10.9 4.3 4.2 6.4 5.8 10.4 7.8 2.7 1.3 6.6 2.9 8.5 3.4 2 0.4 5.5 1 8 1.2 2.5 0.2 6.3 0.1 9.1-0.3 2.6-0.5 6.7-1.6 9.1-2.5 2.4-0.9 6.1-2.8 8.2-4.2 2.1-1.4 5.6-4.5 7.9-6.9 2.9-3.2 4.8-5.9 6.6-9.7 1.4-3 3-7.3 3.5-9.6 0.5-2.4 0.9-6.7 0.9-9.7 0-3.5-0.4-7.1-1.2-10.2-0.6-2.6-2.1-6.6-3.2-8.8-1.1-2.3-3.3-5.7-4.9-7.7-1.5-1.9-4.4-4.8-6.3-6.3-2-1.6-5-3.6-6.8-4.5-1.8-1-4.9-2.3-7-3-3-1-5.7-1.4-11.5-1.6-6.2-0.1-8.5 0-11.8 0.9zm-721.1 260.2c0 72.1 0.3 121.4 0.6 127.4 0.4 5.3 1 12.5 1.5 15.9 0.5 3.4 1.6 9.2 2.4 12.9 0.9 3.8 2.6 9.9 3.8 13.7 1.3 3.8 3.4 9.4 4.8 12.4 1.3 3 3.9 8 5.7 11.1 1.8 3.2 5 8.1 7.1 10.9 2.1 2.9 6.1 7.6 8.9 10.4 2.7 2.9 7 6.9 9.4 8.8 2.4 2 6.8 5.2 9.7 7.1 2.9 1.9 8.2 4.9 11.8 6.6 3.6 1.7 9.6 4.2 13.5 5.5 3.9 1.3 10.1 3 13.9 3.9 3.7 0.8 10.3 1.9 14.7 2.4 6.2 0.8 11.2 0.9 22.7 0.7 11.1-0.2 16.4-0.6 21.8-1.5 3.8-0.7 9.5-1.9 12.6-2.7 3.1-0.8 7.9-2.3 10.6-3.3 2.8-1 7.7-3.1 10.9-4.7 3.2-1.6 8-4.2 10.6-5.9 2.6-1.7 6.4-4.5 8.5-6.2 2.2-1.7 6.2-5.4 9.1-8.3 2.9-2.9 7-7.6 9.2-10.5 2.2-2.9 5.5-7.8 7.3-10.9 1.9-3.1 4.2-7.3 5.3-9.3 1-2.1 2.2-3.7 2.6-3.7 0.5 0 0.7 6.5 0.7 30.4v30.3h71.3c-0.5-149-0.6-230.2-0.6-276.6v-84.4h-74.2c0 204.1-0.2 221.8-0.9 227.5-0.5 3.6-1.3 8.4-1.8 10.7-0.5 2.3-1.9 6.9-3 10.3-1.1 3.4-3.2 8.7-4.8 11.8-1.5 3.1-4.1 7.6-5.7 10-1.6 2.4-5.6 7.1-8.9 10.4-3.2 3.2-7.8 7.2-10.3 8.9-2.4 1.6-6.5 4-9.1 5.3-2.6 1.3-6.8 3.1-9.4 3.9-2.6 0.9-7 2.1-9.7 2.7-2.8 0.6-7.9 1.4-11.5 1.8-3.9 0.4-9.7 0.6-14.4 0.3-4.4-0.2-10.4-0.7-13.3-1.2-2.9-0.5-7.7-1.5-10.6-2.4-2.9-0.8-7.4-2.5-10-3.7-2.6-1.2-6.4-3.4-8.5-4.8-2.1-1.4-6-4.7-8.6-7.3-2.7-2.6-6-6.6-7.5-8.9-1.4-2.3-3.5-5.8-4.5-7.9-1.1-2.2-2.8-6.5-3.9-9.8-1.1-3.2-2.5-8.5-3.1-11.7-0.7-3.3-1.5-9-1.8-12.7-0.5-4.5-0.7-45.4-0.7-120v-113.2h-74.2zm694.3 62.9v180.5h74.2v-361h-74.2z"/>
	<path id="Path 0" class="s0" d="m324.5 121.1c-3 0.2-7.2 0.6-9.5 1-2.3 0.4-7.9 1.6-12.3 2.6-4.5 1.1-12.8 3.5-18.5 5.5-5.7 2-16.6 5.7-24.3 8.3-7.7 2.7-15.7 5.2-17.9 5.6-3.4 0.7-4.5 0.7-8.6 0-2.7-0.4-11.3-3-19.3-5.7-8-2.7-18.6-6.4-23.5-8.1-4.9-1.7-11.9-3.8-15.6-4.7-3.7-1-9.4-2.1-12.6-2.6-3.2-0.5-8.4-0.9-11.6-0.9-3.1 0-8.2 0.3-11.2 0.6-3 0.3-8.4 1.2-12.1 1.9-3.7 0.8-10 2.4-14 3.7-4.3 1.5-10.8 4.2-16.2 6.9-4.9 2.5-11.4 6.2-14.5 8.3-3.1 2-7.4 5.1-9.5 6.8-2.2 1.8-6.3 5.5-9.2 8.3-2.8 2.8-7.1 7.4-9.4 10.2-2.3 2.8-5.6 7.2-7.4 9.8-1.7 2.6-4.5 7-6.1 9.7-1.6 2.8-3.7 6.6-4.7 8.4-0.9 1.9-3 6.6-4.6 10.6-1.6 4-3.8 10.4-4.9 14.3-1.1 3.8-2.7 10.1-3.4 14-0.8 3.8-1.8 9.8-2.3 13.4-0.5 3.8-1 12.6-1.2 21.8-0.2 9.7-0.1 18.4 0.3 23.7 0.4 4.6 1.2 11.9 1.8 16.2 0.6 4.3 2 12.1 3 17.3 1.1 5.3 3 13.3 4.3 17.9 1.2 4.6 3.6 12.5 5.3 17.6 1.7 5.1 5 14 7.3 19.9 2.3 5.8 6.7 15.9 9.9 22.3 3.1 6.5 7.7 15.1 10.1 19.3 2.4 4.1 6.6 10.9 9.4 15.1 2.7 4.1 8.2 11.8 12.1 17 3.9 5.2 9.7 12.7 12.9 16.5 3.2 3.8 8.3 9.5 11.4 12.5 3.1 3 7.5 7 9.8 8.9 2.3 1.9 6.3 4.8 9 6.5 2.6 1.7 6.8 4 9.5 5.1 2.6 1.1 6.5 2.5 8.6 3.1 3 0.8 5.9 1 12.6 1 6.4 0 9.9-0.2 13.4-1 2.6-0.6 7.9-2 11.7-3.3 3.9-1.2 10.8-3.6 15.4-5.4 4.6-1.8 11.3-4.2 14.8-5.2 3.5-1.1 9.1-2.5 12.4-3.2 3.3-0.6 9.2-1.4 13.2-1.7 4.3-0.3 9.5-0.3 13.2 0 3.4 0.3 7.8 0.8 9.8 1.1 2 0.4 6 1.3 9 2 2.9 0.7 7.8 2.2 10.9 3.3 3 1 8.8 3.2 12.8 4.8 4 1.6 10.2 3.7 13.7 4.7 3.5 1.1 8.9 2.3 12 2.8 3.1 0.5 8.4 1 11.7 0.9 3.5 0 8.3-0.4 10.9-0.9 2.6-0.5 6.5-1.5 8.7-2.3 2.1-0.8 5.4-2.2 7.3-3.1 1.8-0.9 5.3-3 7.8-4.6 2.4-1.6 6.3-4.5 8.6-6.5 2.3-1.9 6.1-5.4 8.4-7.8 2.3-2.3 6.5-7.1 9.5-10.6 2.9-3.5 8.1-10.2 11.5-14.8 3.5-4.6 8.5-11.8 11.3-15.9 2.7-4.2 6.8-10.7 9.1-14.5 2.2-3.9 6-10.9 8.4-15.7 2.3-4.8 5.4-11.3 6.8-14.5 1.4-3.2 4.1-10 5.9-15 1.9-5 3.5-9.2 3.5-9.3 0-0.2-2-1.2-4.4-2.3-2.4-1.1-6.7-3.4-9.6-5.1-2.9-1.8-7.8-5.1-10.9-7.4-3.1-2.3-8.2-6.7-11.4-9.8-3.2-3.1-7.4-7.5-9.3-9.8-1.9-2.3-5.2-6.7-7.2-9.8-2.1-3-5.1-8.3-6.8-11.7-1.6-3.4-4-9.2-5.2-12.9-1.2-3.6-2.7-9.2-3.4-12.2-0.6-3.1-1.4-7.9-1.7-10.7-0.3-2.7-0.6-9.5-0.6-15.1 0-6.1 0.4-12.5 0.9-16.4 0.5-3.6 1.6-9.2 2.5-12.6 0.9-3.4 2.2-7.8 3-9.8 0.8-2 2.1-5.1 2.9-7 0.8-1.8 2.8-5.6 4.4-8.4 1.7-2.7 4.6-7.1 6.5-9.7 1.9-2.6 6.1-7.4 9.2-10.6 3-3.2 8.1-7.8 11.2-10.3 3-2.4 7.8-6 10.6-7.8 2.7-1.8 5.1-3.4 5.2-3.5 0-0.1-1.4-2.2-3.2-4.6-1.8-2.4-5.5-6.7-8.2-9.5-2.8-2.9-7.3-7.1-10-9.3-2.8-2.3-7.2-5.5-9.8-7.2-2.6-1.7-7.5-4.4-10.9-6.1-3.4-1.7-8.4-4-11.2-5.1-2.7-1-7.8-2.7-11.1-3.6-3.4-1-8.6-2.3-11.5-2.8-2.9-0.6-8.6-1.5-12.6-2-4-0.5-9.4-0.9-12-1-2.6-0.1-7.1 0-10 0.2zm7.8-120.5c-2.3 0.4-6 1.1-8.1 1.7-2.2 0.5-6.5 1.8-9.5 2.9-3.1 1.1-8.5 3.3-12 5-3.6 1.7-8.9 4.5-11.8 6.2-2.9 1.8-7.7 5-10.6 7.2-2.9 2.1-7.2 5.7-9.4 7.8-2.3 2.1-6.2 6.2-8.6 9.2-2.5 2.9-6.4 8.2-8.7 11.7-2.4 3.5-5.9 9.6-7.8 13.4-1.9 3.8-4.4 9.9-5.6 13.4-1.2 3.5-2.7 8.8-3.4 11.7-0.6 3-1.4 8-1.8 11.2-0.3 3.2-0.6 8.6-0.4 11.8 0.1 3.3 0.4 6.2 0.6 6.5 0.3 0.2 3.7 0.4 7.6 0.3 4.6 0 9-0.4 12.6-1.2 3.1-0.6 7.9-1.9 10.7-2.9 2.7-1 7.3-2.9 10-4.3 2.8-1.4 7.4-4.1 10.4-6 2.9-1.9 7.7-5.5 10.6-8 2.9-2.4 7.8-7 10.9-10.3 3-3.2 7.5-8.3 9.8-11.3 2.4-3.1 5.6-7.7 7.2-10.3 1.7-2.7 4.3-7.4 5.9-10.7 1.6-3.2 4-8.7 5.2-12.3 1.2-3.5 2.7-8.8 3.3-11.7 0.7-2.9 1.5-8.1 1.8-11.4 0.4-3.4 0.6-9.3 0.5-13.2l-0.2-7c-3.9-0.1-6.9 0.2-9.2 0.6z"/>
</svg>
