<svg version="1.2" xmlns="http://www.w3.org/2000/svg" viewBox="0 0 1848 508"><path class="a" d="m546.1 406.5q-39.1 0-63.9-14-23.9-14.6-39.3-39.2l41.9-32.3q12.4 18.9 29.8 30 17.5 10.4 42.8 10.4 26.2 0 41.1-9.9 15.4-10.7 18.8-29.2 2.6-14.4-5.4-24.1-7-9.7-29.7-12.9l-24.4-3.4q-26.7-4-46-13.3-18.7-9.7-27-26.4-8-17.2-3.3-42.9 7.5-41.3 39.8-63.2 33.1-22 78.4-22 24.9 0 42.1 5.3 17.9 5.2 30 15.7 13.2 9.5 22.8 23.5l-40.2 32.8q-8.3-13.1-24.3-22.4-15.5-9.9-39.3-9.9-24.3 0-38.8 9.9-13.7 9.9-16.7 26.7-3.1 17.1 6.1 25.5 10.2 8.3 32.5 12l24.3 3.6q45.1 6.7 62 27 17.2 20.1 11.1 53.4-4.9 27-21.9 47.3-16.9 19.9-43.9 31.2-26 10.8-59.4 10.8zm165.8 101.2h-55.3l70.4-387.2h55.3l-8.3 46h2.3q13.8-25.5 36.9-39 24-13.4 52.1-13.4 35.4 0 56.9 17.7 21.9 17.3 29.2 50.1 7.3 32.5-1 78.3-8.3 45.4-27.5 78.4-19.3 32.9-47.5 50.6-27.9 17.3-63.3 17.3-28.1 0-46.7-13.5-17.6-14-23.2-39h-2.4zm92.2-148.6q32 0 54.2-20.4 23.2-20.9 29.3-54.4l8.7-48q6.1-33.7-9.6-53.8-14.7-21-46.6-21-18 0-34.2 6.4-15.8 6.2-26.8 17.3-10.5 10.9-13.2 25.6l-17.6 96.8q-2.9 16.2 3.4 27.8 6.9 11.5 20.5 17.8 14 5.9 31.9 5.9zm247.4 47.4q-38.6 0-64.5-17.8-25-18.3-35.4-51.1-9.4-32.9-1.3-77.4 8.1-44.7 29.5-77.2 22.3-32.8 53.9-50.6 32.4-18.3 71-18.3 38.6 0 63.6 18.3 25.9 17.8 35.5 50.6 10.2 32.5 2.1 77.2-8.1 44.5-30.2 77.4-21.6 32.8-54 51.1-31.6 17.8-70.2 17.8zm8.4-46.5q31.3 0 53.8-19.2 22.5-19.4 29.5-57.6l8.3-45.8q7-38.4-8.5-57.6-15.5-19.2-46.8-19.2-30.7 0-53.9 19.2-22.4 19.2-29.3 57.6l-8.4 45.8q-6.9 38.2 8.4 57.6 16.2 19.2 46.9 19.2zm262.2 40h-51.7q-28.4 0-40.8-15.6-12-15.6-7.2-42.3l32-175.8h-43.8l8.3-45.7h23.9q14.7 0 20.8-6 7-6.8 9.6-21l9.1-49.9h49.7l-14 76.9h59.3l-8.4 45.7h-59.2l-34.2 188h54.9zm75.6 0h-55.3l50.9-279.5h55.2zm33-333q-17.1 0-23.9-7.9-6.1-8.6-3.8-21.4l1.6-8.6q2.3-12.9 11.4-20.6 9.9-8.6 26.9-8.6 17.4 0 23.2 8.6 6.9 7.7 4.5 20.6l-1.6 8.6q-2.3 12.8-12.1 21.4-8.8 7.9-26.2 7.9zm73.8 333h-55.2l42.5-233.7h-43.5l8.4-45.8h43.4l8.8-48.5q6-32.6 26.6-51.1 20.9-19.4 55-19.4h45.3l-8.4 45.8h-58.7l-13.3 73.2h58.7l-8.3 45.8h-58.7zm81.4 107.7h-31.2l8.3-45.8h46.9l26.3-49.9-49.3-291.5h55.1l27.4 170 5 57.4h2.9l27.5-57.4 89.6-170h53.2l-180.6 337.1q-9.6 18.3-20.4 29.6-10.3 10.8-25 15.6-13.9 4.9-35.7 4.9z"/><path fill-rule="evenodd" class="a" d="m204.8 47.2c9.9 0 19.5 0.2 21.4 0.5 1.9 0.2 6.5 0.9 10.2 1.5 3.7 0.6 8.6 1.4 10.7 1.9 2.2 0.5 6.9 1.6 10.5 2.6 3.6 0.9 7.7 2 9.1 2.5 1.4 0.4 5 1.6 7.9 2.6 2.8 1.1 6.6 2.5 8.3 3.3 1.7 0.7 4 1.7 5 2.1 1 0.4 4.9 2.3 8.6 4.1 3.7 1.9 7.1 3.6 7.6 3.9 0.4 0.2 3 1.8 5.7 3.4 2.8 1.6 7.5 4.6 10.5 6.6 3 2.1 7 4.9 8.9 6.4 1.8 1.4 3.5 2.7 3.6 2.9 0.2 0.1 1.3 1.1 2.6 2.1 1.3 1 3.4 2.7 4.7 3.9 1.3 1.1 5.7 5.4 9.7 9.4 4.1 4 8.3 8.4 9.4 9.7 1.2 1.3 3.5 4.1 5.3 6.2 1.7 2.2 3.2 4.1 3.4 4.2 0.1 0.2 1.7 2.3 3.4 4.7 1.8 2.5 4.5 6.5 6 8.9 1.6 2.5 3.6 5.6 4.5 7.1 0.9 1.4 2.7 4.7 4.1 7.3 1.3 2.6 2.9 5.5 3.4 6.5 0.5 1 1.6 3.4 2.5 5.3 0.8 1.8 2.1 4.8 2.8 6.5 0.8 1.7 2.3 5.7 3.4 8.9 1.2 3.1 2.7 7.7 3.5 10.2 0.7 2.4 1.9 6.8 2.6 9.6 0.7 2.9 1.5 6.4 1.8 7.9 0.3 1.4 1 5.4 1.6 8.9 0.6 3.4 1.4 9.3 1.9 13 0.7 5.3 0.8 10.2 0.6 22-0.1 8.3-0.4 17.4-0.8 20.1-0.4 2.7-1.1 7.8-1.7 11.2-0.6 3.5-1.3 7.5-1.6 8.9-0.3 1.4-1.1 5-1.8 7.9-0.7 2.8-1.9 7.2-2.6 9.6-0.8 2.5-2.3 7-3.5 10.2-1.1 3.2-2.6 7.2-3.3 8.9-0.8 1.7-2.1 4.7-2.9 6.5-0.9 1.9-2.3 4.8-3.2 6.6-0.8 1.7-2.2 4.4-3.1 6-0.8 1.6-2.9 5.2-4.7 8.1-1.7 2.8-5.2 8.3-7.8 12-2.7 3.7-4.9 6.9-5.1 7-0.2 0.2-1.7 2.1-3.4 4.2-1.8 2.2-4.1 5-5.3 6.3-1.1 1.3-5.3 5.7-9.4 9.7-4 4-8.4 8.3-9.7 9.4-1.3 1.2-3.4 2.9-4.7 3.9-1.3 1-2.4 2-2.6 2.1-0.1 0.2-1.8 1.5-3.6 2.9-1.9 1.4-5.5 4-8.1 5.8-2.6 1.8-7.2 4.7-10.2 6.5-3 1.8-6.1 3.6-6.8 4.1-0.7 0.5-4.3 2.3-7.9 4-3.6 1.8-7.3 3.6-8.3 4-1 0.4-3.6 1.5-5.8 2.4-2.1 0.9-5.3 2.1-7 2.7-1.8 0.6-4 1.4-5 1.8-1 0.4-3.8 1.3-6.3 2-2.4 0.8-6.4 1.8-8.8 2.4-2.5 0.6-6.1 1.4-8.1 1.8-2.1 0.5-6.8 1.3-10.5 1.9-3.7 0.5-8.6 1.3-10.7 1.6-2.2 0.3-11.3 0.5-20.9 0.5-9.4 0-18.7-0.3-20.7-0.6-2-0.3-6.7-1-10.4-1.5-3.8-0.6-8.5-1.4-10.5-1.9-2-0.4-5.4-1.2-7.5-1.7-2.2-0.6-5.3-1.4-6.8-1.8-1.6-0.4-5-1.5-7.6-2.3-2.6-0.9-6.1-2.1-7.9-2.7-1.7-0.7-4.5-1.8-6.2-2.5-1.8-0.7-4.2-1.8-5.5-2.4-1.3-0.6-4-1.8-6-2.8-2-0.9-5.6-2.7-7.9-4-2.3-1.2-6.7-3.8-9.9-5.7-3.2-2-7.6-4.9-9.9-6.5-2.3-1.6-5.2-3.6-6.3-4.6-1.2-0.9-3.7-2.9-5.7-4.5-2.1-1.5-4.9-3.8-6.3-5.1-1.5-1.3-5.7-5.5-9.4-9.2-3.8-3.8-7.9-8-9.2-9.4-1.3-1.5-2.9-3.4-3.6-4.3-0.8-0.8-1.9-2.3-2.6-3.3-0.8-1-2-2.5-2.8-3.4-0.8-0.9-1.4-1.8-1.4-2 0-0.2-0.3-0.7-0.7-1-0.4-0.4-2.7-3.6-5.1-7.2-2.5-3.6-5.4-8.2-6.5-10.2-1.2-2-2.5-4.4-3-5.2-0.5-0.9-2.6-5.1-4.8-9.4-2.1-4.3-5.1-11.2-6.7-15.2-1.6-4-3.8-10.4-5-14.1-1.1-3.7-2.8-10-3.7-13.8-0.9-3.9-2.1-9.9-2.6-13.4-0.6-3.4-1.4-8.9-1.7-12.3-0.4-3.4-0.7-12.4-0.7-20.9 0-9 0.3-17.2 0.7-20.9 0.4-3.3 1.2-9.3 1.9-13.3 0.7-4 1.6-8.8 2-10.7 0.4-1.9 1.1-4.6 1.4-6 0.4-1.5 1.7-6 3-10.2 1.3-4.2 3.6-10.6 5.1-14.4 1.5-3.7 3.6-8.7 4.7-11 1-2.3 2.1-4.5 2.4-4.9 0.2-0.5 1.5-2.9 2.8-5.5 1.4-2.6 3.1-5.7 3.8-7 0.8-1.2 3.6-5.6 6.3-9.6 2.8-4.1 5.3-7.7 5.7-8.1 0.4-0.4 0.7-0.8 0.7-1 0-0.3 0.6-1.1 1.3-2 0.8-0.9 2-2.4 2.8-3.4 0.7-0.9 1.9-2.5 2.7-3.4 0.7-0.8 2.2-2.6 3.3-3.9 1.2-1.3 5.2-5.4 8.9-9.2 3.8-3.7 8.1-8 9.7-9.4 1.6-1.5 4.5-3.9 6.6-5.5 2-1.5 4.5-3.5 5.7-4.5 1.1-0.9 4-3 6.3-4.6 2.3-1.6 7.1-4.7 10.7-6.8 3.6-2.2 10.8-6.1 15.9-8.6 5.2-2.6 10.8-5.2 12.6-6 1.7-0.7 4.5-1.8 6.2-2.4 1.8-0.6 5.5-1.9 8.4-2.9 2.9-0.9 8.1-2.4 11.5-3.3 3.4-0.8 7.9-1.9 9.9-2.4 2-0.4 6.7-1.2 10.5-1.8 3.7-0.6 8.2-1.3 9.9-1.5 1.7-0.3 11.3-0.5 21.2-0.5zm-69.3 114.8c-5.4 0.3-12 0.8-14.6 1.1-2.6 0.3-7.6 0.9-11.2 1.3-3.6 0.5-8.9 1.2-11.8 1.6-2.9 0.5-6.2 1-7.3 1.3-1.2 0.2-3.7 0.7-5.6 1-2 0.3-4.7 0.9-6 1.4-1.4 0.4-3.1 1-3.8 1.4-0.8 0.3-2.2 1.3-3.4 2.2-1.1 0.8-2.6 2.6-3.5 3.8-0.8 1.2-1.5 2.5-1.5 2.8 0 0.4-0.2 0.9-0.4 1.2-0.3 0.3-0.8 2-1.1 3.7-0.4 2.3-0.4 3.9 0 6.3 0.3 1.7 0.8 3.8 1.2 4.7 0.4 0.8 1.3 2.5 2.2 3.7 0.8 1.1 2.2 2.7 3.1 3.4 0.8 0.7 2.6 1.8 3.9 2.5 1.3 0.6 3.7 1.4 5.4 1.7 2.7 0.6 3.7 0.5 8.9-0.5 3.2-0.6 7.2-1.4 8.9-1.7 1.8-0.3 6.2-1 10-1.5 3.7-0.6 9.1-1.3 12-1.6 2.9-0.3 8.9-0.8 13.3-1.2 4.7-0.4 16.1-0.7 26.7-0.7 10.4 0.1 21.8 0.3 26.1 0.7 4.2 0.4 10.1 0.9 13.1 1.2 3 0.3 8.5 1 12.3 1.6 3.7 0.5 8.3 1.2 10.1 1.5 1.9 0.3 5.9 1.1 8.9 1.6 3.1 0.6 6.5 1.3 7.6 1.5 1.2 0.3 4.2 1 6.8 1.6 2.6 0.6 5.5 1.3 6.5 1.6 1 0.3 5.6 1.6 10.2 2.9 4.6 1.3 9.5 2.7 10.7 3.1 1.3 0.4 4.2 1.3 6.3 2.1 2.2 0.7 4.4 1.5 5 1.8 0.6 0.2 2.2 0.8 3.6 1.3 1.5 0.5 4.8 1.7 7.4 2.8 2.5 1 6 2.4 7.5 3.1 1.6 0.7 4 1.7 5.3 2.2 1.3 0.5 7.5 3.5 13.8 6.6l11.5 5.6c8.7 0.1 10.6-0.2 12.6-0.9 1.4-0.6 2.9-1.3 3.3-1.6 0.4-0.3 1.9-1.7 3.3-3 1.4-1.4 2.9-3.5 3.5-4.7 0.5-1.2 1.3-3.7 1.6-5.4 0.6-2.6 0.6-3.7 0-6.5-0.4-1.9-1.1-4.1-1.5-5-0.5-0.8-1.4-2.4-2.1-3.4-0.7-1-2.2-2.5-3.4-3.4-1.2-0.9-6.8-3.9-12.5-6.7-5.6-2.8-10.4-5-10.5-5-0.2 0-1.5-0.6-3-1.3-1.6-0.7-4.9-2.1-7.5-3.2-2.6-1-6.3-2.6-8.4-3.4-2-0.9-3.8-1.6-4-1.6-0.2 0.1-1.2-0.3-2.1-0.7-0.9-0.4-2.8-1.1-4-1.6-1.3-0.5-5.6-1.9-9.5-3.2-3.8-1.3-8.4-2.7-10.1-3.3-1.8-0.5-4.2-1.2-5.5-1.6-1.3-0.4-3.8-1.1-5.5-1.6-1.7-0.5-3.9-1.1-4.7-1.2-0.9-0.1-3.5-0.8-5.8-1.4-2.3-0.6-6.9-1.7-10.2-2.4-3.3-0.7-8.4-1.8-11.5-2.3-3-0.6-7.7-1.4-10.4-1.9-2.7-0.4-7.4-1.1-10.5-1.5-3-0.4-10.2-1.2-15.9-1.8-5.8-0.6-16-1.3-22.7-1.6-6.8-0.3-15-0.5-18.3-0.4-3.3 0.1-7.6 0.2-9.4 0.3-1.9 0-7.9 0.4-13.4 0.6zm-4.2 71.4c-4.8 0.4-11.4 1.2-14.6 1.6-3.1 0.4-7.7 1.1-10.2 1.5-2.4 0.5-6.5 1.2-9.1 1.7-2.6 0.4-6.4 1.3-8.4 1.8-2 0.6-4.5 1.7-5.5 2.4-1 0.8-2.2 1.8-2.7 2.3-0.5 0.5-1.6 2.2-2.4 3.7-1.2 2.3-1.4 3.4-1.4 6.7 0 3.2 0.2 4.4 1.4 6.6 0.8 1.5 1.9 3.2 2.4 3.7 0.5 0.6 1.7 1.6 2.7 2.4 1 0.7 3.3 1.7 5 2.2 2.8 0.8 3.6 0.8 7 0.3 2.2-0.4 4.7-0.9 5.5-1.1 0.9-0.3 3.7-0.8 6.3-1.3 2.6-0.4 8-1.2 12-1.8 4.1-0.6 11.8-1.4 17.3-1.9 6.5-0.6 14.7-0.9 24-0.9 8.8 0 17.8 0.3 23.8 0.8 5.3 0.5 12.4 1.3 15.7 1.7 3.3 0.5 8.1 1.2 10.7 1.6 2.6 0.4 6.6 1.2 8.9 1.6 2.3 0.5 5.9 1.3 8.1 1.8 2.1 0.5 4.6 1.1 5.5 1.2 0.8 0.2 2.4 0.5 3.4 0.8 1 0.3 4.3 1.2 7.3 2.1 3 0.8 6.6 1.9 8.1 2.4 1.4 0.4 3.4 1.1 4.4 1.4 1 0.3 3 0.9 4.5 1.5 1.4 0.5 4.9 1.8 7.8 2.9 2.9 1.1 7.7 3 10.7 4.3 3 1.3 7 3 8.9 3.9 1.9 0.8 4.9 2.3 6.8 3.2 1.9 1 5.6 2.9 8.4 4.3 3.7 1.9 5.6 2.6 7.8 2.7 1.6 0.1 3.9-0.1 5.2-0.4 1.3-0.4 3.5-1.4 4.8-2.3 1.3-0.9 3.1-2.7 4-4 0.8-1.3 1.8-3.5 2.2-5 0.4-1.4 0.6-3.8 0.4-5.2-0.1-1.4-0.7-3.7-1.3-5-0.6-1.3-1.7-3-2.6-3.9-0.8-0.9-2.3-2.2-3.3-2.9-1-0.7-5.6-3.1-10.2-5.3-4.6-2.3-9.1-4.5-9.9-4.8-0.9-0.4-3.5-1.6-5.8-2.6-2.3-1-6.1-2.6-8.6-3.6-2.4-1-6-2.4-7.8-3.1-1.9-0.7-5.9-2.2-8.9-3.2-3-1-7.7-2.5-10.5-3.4-2.7-0.8-6.1-1.8-7.5-2.2-1.5-0.3-4.1-1-5.8-1.5-1.7-0.6-4.5-1.3-6.3-1.6-1.7-0.4-3.9-0.9-4.9-1.1-1-0.3-4.7-1.1-8.1-1.8-3.5-0.6-8.5-1.6-11.3-2-2.7-0.4-6.7-1.1-8.9-1.4-2.1-0.3-8.3-1-13.8-1.6-7.7-0.9-14.2-1.1-29-1.3-10.5 0-20 0-21.2 0.1-1.1 0.1-6.1 0.6-11 1zm-6.5 64.5c-4.2 0.6-8.9 1.4-10.4 1.6-1.6 0.3-5.1 0.9-7.9 1.5-2.7 0.6-6.2 1.4-7.8 1.7-1.6 0.3-3.6 1-4.5 1.5-0.8 0.5-2.3 1.8-3.1 2.7-0.9 1-2 2.6-2.3 3.6-0.5 1.1-0.7 3.1-0.5 5.2 0.2 2.4 0.6 4 1.5 5.4 0.7 1 2.1 2.5 3.1 3.2 1 0.8 2.9 1.6 4.2 1.9 1.3 0.3 3.4 0.4 4.7 0.2 1.3-0.2 4.1-0.7 6.3-1.3 2.1-0.5 5.3-1.2 7-1.5 1.8-0.3 6.1-1 9.7-1.6 3.6-0.6 9.5-1.3 13.1-1.7 3.6-0.3 13.7-0.6 22.7-0.6 9.1 0 19.1 0.3 22.8 0.6 3.5 0.4 9.4 1.1 13 1.7 3.6 0.6 8.7 1.4 11.3 1.8 2.5 0.5 6 1.2 7.5 1.6 1.6 0.4 4.8 1.2 7.1 1.7 2.3 0.6 5.9 1.6 8.1 2.2 2.1 0.6 5.3 1.6 7 2.2 1.8 0.6 5.2 1.8 7.6 2.6 2.5 0.9 6.2 2.3 8.4 3.2 2.1 0.8 5.8 2.4 8.1 3.4 2.3 1 7.6 3.6 11.7 5.8 4.2 2.1 8.8 4.5 10.2 5.2 2 1 3.4 1.3 5.8 1.3 2 0 3.8-0.4 5.2-1.1 1.2-0.6 2.6-1.6 3.2-2.3 0.7-0.7 1.7-2.3 2.3-3.6 0.5-1.3 1-3.3 1-4.4 0-1.2-0.3-3-0.6-4.2-0.4-1.1-1.6-3-2.8-4.2-1.1-1.1-3.5-2.9-5.2-3.8-1.7-0.9-6.3-3.3-10.2-5.2-3.9-2-8.6-4.2-10.4-5.1-1.9-0.8-4.1-1.8-5-2.1-0.9-0.4-2.9-1.2-4.4-1.8-1.6-0.6-3.4-1.3-4-1.6-0.5-0.3-2.8-1.1-4.9-1.8-2.2-0.8-6.8-2.3-10.2-3.4-3.5-1.1-8.6-2.7-11.5-3.5-2.9-0.7-6.6-1.7-8.4-2.1-1.7-0.4-5.9-1.3-9.4-2-3.4-0.7-10.5-1.9-15.7-2.6-5.1-0.7-12.5-1.6-16.4-1.8-3.9-0.3-11.8-0.7-17.5-0.8-6-0.1-15 0.1-21.2 0.5-5.9 0.4-14.1 1.2-18.3 1.8z"/></svg>