<svg version="1.2" xmlns="http://www.w3.org/2000/svg" viewBox="0 0 2074 508"><path class="a" d="m467.8 507.7h-31.2l8.3-45.8h46.9l26.3-49.9-49.3-291.5h55.1l27.4 170 5 57.4h2.9l27.5-57.4 89.6-170h53.2l-180.6 337.1q-9.6 18.3-20.4 29.6-10.3 10.8-25 15.7-13.9 4.8-35.7 4.8zm337.7-107.7h-51.7q-28.3 0-40.8-15.6-12-15.6-7.1-42.4l31.9-175.7h-43.8l8.4-45.8h23.8q14.8 0 20.9-5.9 6.9-6.8 9.5-21l9.1-49.9h49.7l-14 76.8h59.3l-8.3 45.8h-59.3l-34.2 187.9h54.9zm75.6 0h-55.3l50.9-279.5h55.3l-8.4 46.2h2.5q12.6-21.9 32.6-37 20.2-15.6 52.2-15.6 28 0 47.7 14 19.8 13.3 25.1 42.7h1.2q11.7-23 36.1-39.5 24.9-17.2 59.3-17.2 42 0 59.8 28.5 18.4 28 9.1 79.5l-32.4 177.9h-55.3l31.1-170.7q6.1-33.5-3.7-50.6-9.7-17.2-37.5-17.2-15.1 0-29.9 5.4-14.4 5.2-25 16.1-10 11-13.1 27.5l-34.4 189.5h-55.3l31-170.7q6.2-33.9-3.9-50.6-9.6-17.2-36.5-17.2-14.9 0-29.7 5.4-14.8 5.2-25.6 16.1-10.4 11-13.4 27.5zm456.7 6.4q-42.7 0-62.5-28-19.1-28.3-9.7-79.8l32.4-178.1h55.3l-31.1 170.7q-6.1 33.4 4.4 50.6 11.1 17.2 39.1 17.2 15.6 0 30.3-4.8 15.4-5.7 26.2-16.7 11-10.9 14-27.6l34.5-189.4h55.2l-50.8 279.5h-55.3l8.4-46h-2.4q-11.4 20.5-32.7 36.8-20.2 15.6-55.3 15.6zm260.5 0q-39.1 0-63.9-14-23.9-14.5-39.3-39.1l41.9-32.3q12.4 18.8 29.8 30 17.4 10.4 42.8 10.4 26.2 0 41.1-9.9 15.4-10.8 18.8-29.3 2.6-14.3-5.4-24-7-9.7-29.7-12.9l-24.4-3.4q-26.7-4-46-13.3-18.7-9.7-27-26.4-8-17.2-3.3-42.9 7.5-41.3 39.8-63.2 33.1-22.1 78.4-22.1 24.9 0 42.1 5.4 17.9 5.2 30 15.6 13.2 9.5 22.8 23.5l-40.3 32.9q-8.2-13.1-24.2-22.4-15.5-9.9-39.3-9.9-24.3 0-38.8 9.9-13.7 9.8-16.7 26.7-3.1 17 6.1 25.5 10.2 8.2 32.5 12l24.3 3.6q45.1 6.6 62 26.9 17.2 20.1 11.1 53.5-4.9 26.9-21.9 47.2-16.9 20-43.9 31.3-26 10.7-59.4 10.7zm185.4-6.4h-55.3l50.8-279.5h55.3zm33-333q-17.1 0-23.9-7.9-6.2-8.6-3.8-21.4l1.5-8.6q2.4-12.9 11.5-20.6 9.8-8.6 26.9-8.6 17.4 0 23.2 8.6 6.8 7.7 4.5 20.6l-1.6 8.6q-2.3 12.8-12.1 21.4-8.8 7.9-26.2 7.9zm109.6 339.4q-60.3 0-86.7-39.3-25.4-39.8-13.2-106.9 12.2-67.2 52-106.3 40.8-39.9 101.1-39.9 42 0 64.8 18.9 23.4 18.5 29.8 49.2l-49.5 21.5q-2.7-19.7-16.5-31.4-13.2-11.7-37-11.7-33.6 0-54.7 21.4-21 20.5-27.1 53.8l-8.9 49.2q-6 32.9 7.4 54.2 13.4 20.9 47 20.9 25.5 0 44-12.3 18.9-12.7 32.3-34.1l37.2 23q-19.6 33.2-51 51.5-30.6 18.3-71 18.3z"/><path fill-rule="evenodd" class="a" d="m206.4 47.2c5.6 0 13.7 0.2 17.8 0.5 4.2 0.3 11 1 15.2 1.6 4.2 0.6 10.1 1.6 13.2 2.2 3.2 0.6 7.5 1.6 9.8 2.2 2.2 0.6 6.5 1.8 9.4 2.7 3 0.9 8.9 3 13 4.6 4.2 1.7 10.1 4.2 13.3 5.7 3.1 1.4 7.8 3.9 10.5 5.4 2.7 1.5 8.7 5.2 13.3 8.3 4.6 3 11.2 7.7 14.6 10.5 3.4 2.7 9.5 7.9 13.4 11.5 4 3.7 10 9.7 13.3 13.4 3.4 3.7 7.8 8.9 9.8 11.4 2.1 2.6 5.2 6.6 6.8 8.9 1.7 2.4 4.5 6.6 6.3 9.4 1.8 2.9 4.9 8.2 6.9 11.9 2 3.8 5.1 10.2 6.8 14.2 1.8 4.1 4.2 10.2 5.3 13.6 1.2 3.3 2.9 8.9 3.8 12.3 0.9 3.4 2.2 9.2 3 13 0.7 3.7 1.7 9.6 2.1 13.2 0.5 3.6 1.2 10.1 1.5 14.6 0.4 4.9 0.5 12.6 0.3 19.5-0.2 6.2-0.7 14.5-1.2 18.4-0.4 3.8-1.3 9.8-1.9 13.2-0.5 3.4-1.7 9.2-2.6 12.7-0.9 3.6-2.6 9.6-3.8 13.3-1.2 3.7-3.4 9.8-4.9 13.5-1.6 3.7-4.3 9.7-6.1 13.3-1.8 3.5-4.5 8.5-5.9 11-1.5 2.6-4.5 7.3-6.7 10.6-2.2 3.3-6.2 8.7-8.9 12.2-2.7 3.4-7.8 9.3-11.3 13.1-3.4 3.8-9.1 9.5-12.5 12.7-3.4 3.1-9.1 8-12.7 10.9-3.6 2.9-10.5 7.9-15.4 11.2-5.4 3.5-13.2 8-19.8 11.3-5.9 3-13.7 6.6-17.3 8-3.5 1.4-8.8 3.2-11.6 4.1-2.8 0.9-8.7 2.5-13 3.6-4.3 1-11.5 2.5-15.9 3.2-4.5 0.7-10.8 1.7-14.1 2-3.6 0.4-12.5 0.7-22.7 0.7-12.7 0-18.7-0.3-24.6-1-4.4-0.5-11-1.5-14.9-2.2-3.9-0.7-10.3-2.2-14.3-3.2-4.1-1-10.7-3-14.8-4.3-4.1-1.4-11-4.1-15.4-6-4.4-2-11.1-5.3-15-7.4-3.9-2.1-10.5-6.1-14.6-8.9-4.2-2.7-10-6.9-13-9.2-3-2.3-7.2-5.8-9.5-7.7-2.2-2-6.8-6.3-10.2-9.5-3.3-3.3-8.3-8.6-11.1-11.7-2.7-3.1-6.9-8.1-9.2-11.1-2.3-3-6.1-8.2-8.4-11.6-2.3-3.4-4.8-7.5-5.7-8.9-0.8-1.5-2.8-5.2-4.4-8.2-1.6-2.9-4.1-8-5.6-11.3-1.4-3.3-3.5-8.3-4.6-11.1-1.1-2.8-2.9-8.3-4-12.2-1.2-3.8-2.7-9.9-3.5-13.5-0.7-3.6-1.6-8.1-2-10-0.3-1.9-0.9-6.3-1.4-9.7-0.4-3.5-0.9-12.9-1.1-21.1-0.2-9.4-0.1-17.7 0.3-22.5 0.4-4.1 1-10.1 1.5-13.2 0.4-3.2 1.4-8.6 2.1-12.2 0.7-3.6 2.2-9.7 3.3-13.5 1-3.9 3-10 4.3-13.5 1.4-3.6 3.6-9.1 5-12.2 1.4-3.1 4-8.5 5.8-11.9 1.8-3.4 4.7-8.4 6.3-11.1 1.7-2.7 5-7.5 7.3-10.8 2.3-3.3 6.7-8.9 9.6-12.5 3-3.5 8.5-9.6 12.2-13.4 3.7-3.9 9.6-9.4 13-12.4 3.4-2.9 8.5-7.1 11.4-9.3 2.8-2.1 7.6-5.6 10.8-7.7 3.1-2.1 7.8-5.1 10.5-6.6 2.7-1.6 7.8-4.4 11.4-6.1 3.5-1.8 9-4.3 12.1-5.6 3.2-1.3 8.5-3.3 11.9-4.5 3.5-1.1 9.1-2.9 12.5-3.8 3.4-0.9 9.4-2.2 13.4-3 3.9-0.8 11.1-1.9 15.9-2.5 4.9-0.5 10.3-1.1 12.1-1.2 1.8-0.1 7.8-0.2 13.5-0.3zm-26.2 71.3c-3.5 0.6-9.2 2-12.8 3.1-3.5 1-9.1 2.9-12.4 4.3-3.3 1.3-8.5 3.8-11.6 5.4-3.1 1.7-8.3 4.7-11.4 6.8-3.1 2.1-6.8 4.7-8.1 5.8-1.3 1-5.1 4.2-8.4 7.1-3.3 2.9-7.8 7.3-10 9.8-2.3 2.5-5.3 5.9-6.8 7.7-1.5 1.8-4.7 6.3-7.2 10-2.5 3.8-6.3 10.3-8.4 14.6-2.1 4.4-5 11.4-6.4 15.6-1.4 4.2-3.2 10.7-3.9 14.3-0.7 3.7-1.6 8.8-2 11.5-0.4 2.9-0.7 10.2-0.7 17.6 0 7.4 0.3 14.8 0.7 17.6 0.4 2.7 1.3 7.8 2 11.5 0.7 3.6 2.4 9.9 3.8 14 1.3 4.1 4.2 11.1 6.4 15.6 2.2 4.5 5.7 10.8 7.9 14.1 2.2 3.2 5.2 7.5 6.7 9.4 1.5 2 4.9 5.8 7.4 8.7 2.6 2.8 7.2 7.4 10.3 10.1 3.1 2.7 7.9 6.7 10.8 8.8 2.8 2.2 7.9 5.6 11.3 7.6 3.4 2 8.6 4.8 11.4 6.1 2.8 1.3 7.6 3.3 10.5 4.4 3 1.1 7.6 2.6 10.3 3.3 2.7 0.8 8 1.9 11.9 2.6 3.9 0.8 10.7 1.6 15.2 2 4.7 0.4 11.6 0.5 16.6 0.3 4.7-0.2 11.2-0.7 14.6-1.2 3.3-0.4 8.6-1.4 11.8-2.1 3.1-0.7 7.9-2 10.8-2.9 2.8-0.9 7-2.3 9.3-3.3 2.3-0.9 7.1-3.1 10.6-4.8 3.4-1.8 8.4-4.5 10.9-6.1 2.5-1.6 7-4.8 10-7 3-2.2 9.6-8.2 14.6-13.2 5.1-5.1 11.1-11.7 13.3-14.6 2.3-3 5.6-7.9 7.5-10.9 1.9-2.9 4.7-8 6.2-11.3 1.6-3.3 3.8-8.3 4.8-11.1 1.1-2.8 2.5-7.3 3.3-10 0.7-2.7 1.8-7.6 2.5-10.8 0.6-3.3 1.3-8 1.7-10.6 0.3-2.5 0.6-9.6 0.6-15.7 0-6.1-0.3-13.5-0.6-16.5-0.4-2.9-1.2-7.9-1.8-11-0.6-3.2-1.7-7.9-2.4-10.6-0.8-2.7-2.2-7.2-3.3-10-1-2.8-3.4-8.3-5.4-12.2-1.9-3.8-5.5-10-8-13.8-2.5-3.7-6.4-9-8.8-11.9-2.4-2.8-7.4-8.1-11.3-11.9-3.8-3.7-9.7-8.8-13.2-11.4-3.4-2.6-8.1-5.9-10.5-7.4-2.4-1.4-7.1-4-10.4-5.7-3.4-1.7-8-3.8-10.3-4.7-2.3-0.9-6.9-2.5-10.1-3.5-3.3-1-8.9-2.5-12.5-3.2-3.5-0.7-8.8-1.6-11.6-1.9-2.8-0.3-9.6-0.7-15.2-0.8-6-0.2-12.7 0-17 0.5-3.9 0.4-9.8 1.2-13.2 1.9zm30 24.6c11.5 0.1 13.8 0.3 20.3 1.6 4 0.8 10.2 2.5 13.8 3.6 3.5 1.2 9.4 3.6 12.9 5.4 3.6 1.8 8.6 4.6 11.2 6.3 2.6 1.7 6.6 4.6 8.9 6.5 2.4 1.8 7 6 10.3 9.4 3.4 3.4 7.2 7.6 8.7 9.4 1.4 1.8 4.1 5.6 6 8.4 1.9 2.8 4.8 7.9 6.4 11.3 1.7 3.5 4 9.1 5.1 12.5 1.1 3.4 2.5 8.6 3.1 11.6 0.6 3 1.4 8 1.7 11.1 0.3 3.1 0.6 8.5 0.6 11.9 0 3.4-0.3 8.8-0.6 11.9-0.3 3.1-1.1 8.1-1.7 11.1-0.6 3-2 8.3-3.2 11.9-1.2 3.6-3.6 9.3-5.3 12.7-1.7 3.4-4.2 7.9-5.6 10-1.3 2.1-3.9 5.7-5.8 8.1-1.8 2.4-6 7.1-9.3 10.5-3.4 3.3-8 7.6-10.4 9.4-2.3 1.9-6.3 4.8-8.9 6.5-2.6 1.7-7.6 4.6-11.2 6.3-3.5 1.8-9.4 4.2-12.9 5.4-3.6 1.2-9 2.6-12.1 3.3-3 0.6-7.8 1.3-10.5 1.6-2.8 0.3-9 0.5-14 0.5-4.9 0.1-11.1-0.2-13.7-0.5-2.7-0.3-7.4-1-10.3-1.6-3-0.6-8.4-2.1-11.9-3.3-3.6-1.2-9.4-3.6-13-5.3-3.6-1.8-9.1-4.9-12.2-7-3.1-2-8-5.7-10.8-8-2.8-2.4-7.3-6.6-9.8-9.4-2.6-2.8-6.3-7.1-8.1-9.5-1.8-2.3-4.5-6.2-5.9-8.6-1.4-2.4-3.8-6.9-5.3-10-1.5-3.1-3.6-8.3-4.7-11.4-1-3.1-2.3-8-2.9-10.8-0.6-2.8-1.3-7.1-1.7-9.5-0.3-2.3-0.6-8.6-0.6-13.8 0-5.2 0.3-11.6 0.6-14.3 0.3-2.7 1.1-7.2 1.7-10 0.6-2.8 2-7.9 3.1-11.4 1.2-3.4 3.5-9 5.2-12.4 1.7-3.4 4.2-7.9 5.6-10 1.3-2.1 4-5.9 6-8.4 1.9-2.5 6.1-7.2 9.2-10.3 3.2-3.2 7.7-7.3 10-9.2 2.4-1.8 6.6-4.8 9.2-6.6 2.7-1.8 7.8-4.6 11.4-6.4 3.6-1.7 9-4 12.2-5.1 3.1-1 8.6-2.5 12.1-3.3 3.6-0.7 8.2-1.5 10.3-1.8 2.1-0.3 9.6-0.4 16.8-0.3zm-43.6 169c2.8-1.5 24.1-13.5 49.3-27.6 25.1-14 48.3-27 51.5-28.8 3.2-1.8 5.8-3.5 5.7-3.7-0.1-0.2-23.1-13.2-51-28.9-28-15.6-51.9-29-53.1-29.7l-2.3-1.4z"/></svg>