<svg version="1.2" xmlns="http://www.w3.org/2000/svg" viewBox="0 0 64 64"><path fill-rule="evenodd" class="a" d="m34.1 0.5c9.5 0 15.3 0 15.8 0.1 0.5 0 1.2 0.1 1.7 0.2 0.5 0 1.2 0.2 1.7 0.3 0.5 0.1 1.2 0.3 1.6 0.5 0.4 0.2 1 0.4 1.3 0.6 0.4 0.2 0.9 0.5 1.2 0.7 0.4 0.2 0.8 0.6 1.1 0.8 0.3 0.2 0.7 0.6 1 0.9 0.3 0.3 0.7 0.8 0.9 1.1 0.3 0.2 0.6 0.7 0.8 1 0.1 0.2 0.4 0.6 0.5 0.9 0.1 0.2 0.3 0.6 0.5 1 0.1 0.3 0.4 0.8 0.5 1.2 0.1 0.3 0.2 0.9 0.3 1.2 0.1 0.4 0.2 1.1 0.3 1.5 0.1 0.8 0.2 1.3 0.2 3.8 0 1.7 0.1 8.7 0.1 15.8 0 7-0.1 14.1-0.1 15.6 0 2.1-0.1 3.1-0.2 3.5 0 0.4-0.1 1-0.2 1.3-0.1 0.4-0.2 0.9-0.3 1.2-0.1 0.4-0.3 1-0.5 1.3-0.1 0.4-0.4 1-0.6 1.3-0.1 0.3-0.4 0.8-0.6 1.1-0.2 0.3-0.6 0.8-0.9 1.1-0.2 0.3-0.7 0.8-1 1.2-0.3 0.3-0.8 0.7-1.1 0.9-0.3 0.2-0.7 0.5-1 0.7-0.3 0.1-0.8 0.4-1.1 0.6-0.3 0.1-0.8 0.4-1.1 0.5-0.3 0.1-0.7 0.2-1 0.3-0.3 0.1-0.9 0.2-1.2 0.3-0.4 0.1-1.1 0.2-1.5 0.3-0.4 0-1.2 0.1-1.7 0.1-0.7 0.1-5.7 0.1-17.5 0.1-11.5 0-16.8 0-17.4-0.1-0.5 0-1.3-0.1-1.7-0.1-0.5-0.1-1.1-0.2-1.6-0.3-0.4-0.1-1.1-0.3-1.6-0.4-0.4-0.2-1.1-0.5-1.5-0.7-0.5-0.2-1.1-0.5-1.4-0.7-0.3-0.2-0.8-0.6-1.1-0.9-0.4-0.2-0.8-0.6-1.1-0.9-0.3-0.3-0.7-0.8-0.9-1-0.2-0.2-0.6-0.7-0.8-1.1-0.2-0.3-0.6-0.9-0.8-1.4-0.2-0.4-0.5-1.1-0.6-1.4-0.1-0.3-0.3-0.9-0.4-1.2-0.1-0.4-0.2-1-0.3-1.4-0.1-0.4-0.2-1.1-0.2-1.7-0.1-0.8-0.1-2.3-0.1-17.9 0-13.3 0-17.3 0-18.1 0.1-0.5 0.2-1.4 0.3-1.8 0-0.5 0.2-1.2 0.3-1.6 0.1-0.3 0.2-0.9 0.3-1.1 0.1-0.3 0.3-0.8 0.5-1.2 0.1-0.4 0.4-1 0.7-1.3 0.2-0.4 0.5-0.9 0.7-1.2 0.2-0.2 0.6-0.7 0.9-1.1 0.3-0.3 0.8-0.8 1.1-1 0.3-0.3 0.9-0.7 1.2-0.9 0.4-0.3 1.1-0.7 1.5-0.9 0.4-0.2 1.1-0.5 1.4-0.6 0.3-0.1 1-0.3 1.4-0.4 0.4-0.1 1-0.3 1.4-0.3 0.3-0.1 0.8-0.1 1.1-0.2 0.3 0 1.7-0.1 3.1-0.1 1.5 0 9.4 0 17.7 0zm-11.1 8.4c-0.9 0-1.9 0.1-2.3 0.1-0.4 0.1-1.1 0.2-1.6 0.3-0.4 0.1-1 0.2-1.4 0.4-0.4 0.1-1 0.3-1.4 0.5-0.3 0.1-0.9 0.4-1.2 0.6-0.3 0.1-0.8 0.5-1.2 0.7-0.3 0.3-0.9 0.8-1.2 1.2-0.4 0.3-0.9 0.9-1.2 1.2-0.2 0.4-0.6 0.9-0.8 1.3-0.2 0.3-0.4 0.8-0.6 1.2-0.1 0.3-0.3 0.9-0.4 1.3-0.2 0.3-0.3 1-0.4 1.4-0.1 0.4-0.2 1-0.2 1.3-0.1 0.3-0.1 0.9-0.2 1.3 0 0.4-0.1 1.8-0.1 3.1 0 1.5-0.1 4.6 0 8.8 0 3.5 0 7 0.1 7.6 0 0.7 0.1 1.6 0.1 2.1 0.1 0.4 0.2 1.1 0.3 1.5 0.1 0.5 0.2 1.1 0.4 1.5 0.1 0.4 0.3 1 0.5 1.4 0.1 0.3 0.4 0.9 0.5 1.1 0.2 0.3 0.5 0.8 0.7 1 0.2 0.3 0.5 0.8 0.8 1 0.2 0.3 0.6 0.7 0.9 1 0.3 0.2 0.8 0.6 1.1 0.8 0.2 0.2 0.7 0.5 1 0.7 0.2 0.1 0.8 0.4 1.1 0.5 0.4 0.2 0.9 0.4 1.3 0.5 0.3 0.1 0.8 0.3 1.1 0.3 0.3 0.1 0.9 0.2 1.3 0.3 0.5 0 1.2 0.1 1.7 0.2 0.5 0 1.8 0.1 2.9 0.1 1.1 0 4.5 0 7.4 0 2.9 0 6.2 0 7.3 0 1.1 0 2.5-0.1 2.9-0.1 0.5-0.1 1.3-0.2 1.7-0.2 0.5-0.1 1.1-0.2 1.3-0.3 0.3 0 0.9-0.2 1.2-0.3 0.3-0.1 0.9-0.3 1.3-0.5 0.3-0.1 0.9-0.4 1.1-0.5 0.3-0.2 0.8-0.5 1-0.7 0.3-0.2 0.8-0.5 1-0.8 0.3-0.2 0.8-0.7 1-1 0.3-0.3 0.7-0.8 0.9-1.1 0.2-0.3 0.5-0.7 0.6-1 0.2-0.2 0.4-0.7 0.5-1 0.2-0.4 0.4-1 0.5-1.4 0.1-0.3 0.3-0.9 0.4-1.3 0-0.3 0.1-0.9 0.2-1.2 0.1-0.4 0.1-1.1 0.2-1.6 0-0.5 0.1-1.8 0.1-3 0-1.1 0-4.3 0-7.1 0-2.9 0-6.2 0-7.3 0-1.2-0.1-2.5-0.1-3-0.1-0.5-0.1-1.2-0.2-1.6-0.1-0.4-0.2-1-0.2-1.3-0.1-0.4-0.3-1-0.4-1.3-0.1-0.4-0.3-0.9-0.5-1.3-0.1-0.3-0.3-0.8-0.4-1-0.1-0.2-0.4-0.5-0.5-0.8-0.2-0.3-0.5-0.7-0.7-0.9-0.2-0.2-0.6-0.7-1-1-0.3-0.3-0.8-0.8-1.1-1-0.3-0.3-0.8-0.6-1.1-0.8-0.2-0.1-0.8-0.4-1.2-0.6-0.3-0.1-1-0.4-1.4-0.5-0.5-0.2-1.1-0.3-1.6-0.4-0.4-0.1-1.1-0.2-1.5-0.3-0.5 0-1.4-0.1-2.1-0.1-0.7-0.1-3.9-0.1-8.3-0.1-4 0-7.5 0-7.8 0-0.4 0-1.3 0-2.1 0.1zm10.1 4c3.5 0 7 0.1 7.7 0.1 0.7 0 1.6 0.1 1.9 0.1 0.3 0.1 0.9 0.2 1.2 0.2 0.4 0.1 1 0.2 1.3 0.4 0.4 0.1 0.9 0.3 1.2 0.5 0.4 0.1 0.8 0.4 1 0.5 0.2 0.2 0.6 0.5 0.8 0.7 0.2 0.2 0.6 0.6 0.8 0.9 0.3 0.3 0.6 0.8 0.8 1.1 0.2 0.4 0.4 1 0.5 1.3 0.1 0.3 0.3 0.9 0.4 1.3 0 0.4 0.1 1 0.2 1.3 0 0.4 0.1 1.3 0.1 2 0 0.8 0.1 3.5 0.1 6.2 0 2.9 0 6.2 0 8.2-0.1 1.9-0.1 3.8-0.2 4.2 0 0.5-0.1 1.1-0.1 1.4-0.1 0.4-0.2 0.9-0.3 1.3-0.1 0.3-0.2 0.8-0.3 1.1-0.1 0.2-0.3 0.6-0.4 0.8-0.1 0.3-0.4 0.7-0.5 0.9-0.2 0.3-0.6 0.7-0.8 1-0.3 0.2-0.7 0.6-1 0.8-0.2 0.2-0.7 0.5-1.1 0.6-0.4 0.2-1 0.5-1.4 0.6-0.4 0.1-1 0.3-1.3 0.3-0.3 0.1-0.9 0.1-1.2 0.2-0.3 0-1.3 0.1-2.1 0.1-0.9 0-4.6 0.1-8.4 0.1-3.7 0-7.5-0.1-8.4-0.1-0.9 0-2-0.1-2.5-0.2-0.6-0.1-1.3-0.2-1.6-0.3-0.4-0.1-0.9-0.2-1.3-0.4-0.3-0.1-0.8-0.4-1.1-0.5-0.3-0.2-0.7-0.5-1-0.7-0.3-0.3-0.6-0.6-0.8-0.8-0.2-0.2-0.5-0.6-0.6-0.8-0.2-0.2-0.4-0.6-0.5-0.8-0.1-0.2-0.3-0.6-0.4-0.8-0.1-0.3-0.2-0.8-0.3-1.1-0.1-0.4-0.2-0.9-0.3-1.2 0-0.4-0.1-1-0.1-1.5-0.1-0.5-0.1-2.4-0.2-4.2 0-2 0-5.3 0-8.2 0-2.7 0.1-5.5 0.1-6.3 0-0.7 0.1-1.5 0.1-1.9 0.1-0.3 0.2-0.9 0.2-1.2 0.1-0.4 0.2-1 0.4-1.3 0.1-0.4 0.3-0.9 0.5-1.2 0.1-0.4 0.4-0.8 0.5-1 0.2-0.3 0.5-0.7 0.8-0.9 0.2-0.3 0.6-0.6 0.9-0.8 0.2-0.2 0.6-0.5 0.8-0.6 0.3-0.1 0.8-0.3 1.1-0.5 0.4-0.1 1-0.3 1.3-0.4 0.4-0.1 1-0.2 1.4-0.2 0.4-0.1 1.4-0.2 2.2-0.2 0.8 0 2-0.1 2.5-0.1 0.5 0 3.8 0 7.4 0zm9.9 4.3c-0.2 0.1-0.5 0.3-0.6 0.5-0.2 0.2-0.4 0.5-0.5 0.7-0.1 0.4-0.2 0.5-0.2 1 0 0.5 0 0.7 0.1 1 0 0.2 0.2 0.4 0.2 0.6 0.1 0.1 0.3 0.4 0.5 0.5 0.1 0.2 0.4 0.4 0.5 0.5 0.2 0 0.5 0.2 0.7 0.2 0.2 0.1 0.5 0.1 0.9 0.1 0.5 0 0.6-0.1 1-0.2 0.2-0.1 0.5-0.3 0.7-0.5 0.2-0.1 0.4-0.4 0.5-0.6 0.1-0.2 0.2-0.5 0.3-0.7 0-0.2 0.1-0.5 0.1-0.7 0-0.2-0.1-0.5-0.1-0.7-0.1-0.2-0.2-0.5-0.3-0.7-0.1-0.1-0.3-0.4-0.4-0.6-0.2-0.1-0.5-0.3-0.7-0.5-0.2-0.1-0.5-0.2-0.7-0.2-0.2-0.1-0.5-0.1-0.6-0.1-0.2 0-0.5 0.1-0.7 0.1-0.2 0.1-0.5 0.2-0.7 0.3zm-13.4 3.1c-0.3 0.1-1 0.3-1.4 0.4-0.3 0.1-1 0.4-1.3 0.5-0.4 0.2-0.9 0.5-1.2 0.7-0.4 0.2-0.8 0.6-1.1 0.8-0.3 0.2-0.8 0.7-1.2 1-0.3 0.4-0.7 0.9-1 1.2-0.2 0.3-0.5 0.8-0.7 1.1-0.2 0.3-0.4 0.8-0.5 1-0.2 0.3-0.4 0.8-0.5 1.2-0.1 0.3-0.3 1-0.4 1.3 0 0.4-0.1 1.1-0.2 1.6 0 0.7 0 1.1 0 1.8 0.1 0.4 0.1 1.1 0.2 1.4 0.1 0.4 0.2 0.9 0.3 1.2 0.1 0.3 0.3 0.8 0.5 1.2 0.1 0.4 0.4 1 0.6 1.3 0.2 0.3 0.5 0.8 0.7 1.1 0.3 0.3 0.7 0.8 0.9 1.1 0.3 0.3 0.8 0.7 1.1 1 0.3 0.2 0.7 0.6 1 0.7 0.3 0.2 0.8 0.5 1.2 0.7 0.3 0.2 0.9 0.4 1.2 0.6 0.3 0.1 0.8 0.2 1.2 0.3 0.3 0.1 0.9 0.2 1.2 0.3q0.7 0.1 1.8 0.1c0.8 0 1.4 0 1.8-0.1 0.3-0.1 0.9-0.2 1.2-0.3 0.4-0.1 1-0.3 1.4-0.4 0.5-0.2 1.1-0.5 1.5-0.7 0.3-0.2 0.9-0.6 1.2-0.8 0.3-0.3 0.8-0.7 1.1-1 0.4-0.3 0.8-0.8 1-1 0.2-0.2 0.5-0.7 0.8-1.1 0.2-0.3 0.5-0.9 0.7-1.3 0.2-0.4 0.5-1 0.6-1.4 0.1-0.3 0.3-1 0.4-1.3 0-0.4 0.1-1.1 0.2-1.6 0-0.7 0-1.1 0-1.8-0.1-0.5-0.2-1.2-0.2-1.6-0.1-0.3-0.3-1-0.4-1.3-0.1-0.4-0.4-1-0.6-1.4-0.2-0.4-0.5-1-0.7-1.3-0.2-0.3-0.5-0.7-0.7-1-0.2-0.3-0.7-0.7-1-1.1-0.4-0.3-0.9-0.7-1.2-1-0.3-0.2-0.8-0.5-1.1-0.7-0.3-0.2-0.8-0.4-1.2-0.6-0.3-0.1-0.9-0.4-1.2-0.5-0.4-0.1-0.9-0.2-1.3-0.3-0.3-0.1-0.9-0.1-1.2-0.2-0.4 0-0.9 0-1.2 0-0.3 0-0.8 0-1.1 0-0.3 0.1-0.8 0.1-1.2 0.2zm2.8 3.9c0.2 0 0.7 0.1 1 0.1 0.3 0.1 0.7 0.2 1 0.3 0.3 0.1 0.8 0.3 1.1 0.4 0.3 0.2 0.7 0.4 0.8 0.5 0.2 0.1 0.5 0.4 0.7 0.6 0.3 0.2 0.7 0.6 0.9 0.8 0.2 0.3 0.5 0.6 0.6 0.8 0.1 0.1 0.3 0.5 0.5 0.8 0.1 0.3 0.3 0.8 0.4 1.1 0.1 0.3 0.2 0.7 0.3 1 0 0.4 0.1 0.9 0.1 1.4 0 0.5-0.1 1-0.1 1.4-0.1 0.3-0.2 0.7-0.3 1-0.1 0.3-0.3 0.8-0.5 1.1-0.1 0.3-0.4 0.8-0.6 1.1-0.2 0.3-0.6 0.7-0.8 0.9-0.2 0.2-0.6 0.6-0.9 0.7-0.2 0.2-0.7 0.5-1 0.7-0.3 0.1-0.8 0.3-1 0.4-0.3 0.1-0.8 0.3-1.1 0.3-0.4 0.1-0.9 0.1-1.5 0.1-0.6 0-1.1 0-1.5-0.1-0.3 0-0.8-0.2-1.1-0.3-0.2-0.1-0.7-0.3-1-0.4-0.3-0.2-0.8-0.5-1-0.7-0.3-0.1-0.7-0.5-0.9-0.7-0.2-0.2-0.6-0.6-0.7-0.9-0.2-0.2-0.5-0.7-0.7-1-0.1-0.3-0.3-0.8-0.4-1-0.1-0.3-0.3-0.8-0.3-1.1-0.1-0.4-0.2-0.9-0.2-1.5 0-0.6 0.1-1.1 0.2-1.5 0-0.3 0.2-0.8 0.3-1.1 0.1-0.2 0.2-0.7 0.4-1 0.1-0.3 0.4-0.7 0.6-1 0.2-0.3 0.6-0.7 0.8-0.9 0.2-0.2 0.6-0.6 0.9-0.8 0.3-0.2 0.8-0.5 1.1-0.6 0.3-0.2 0.8-0.4 1.1-0.5 0.3-0.1 0.7-0.2 0.9-0.2 0.2-0.1 0.6-0.1 0.9-0.1 0.3-0.1 0.8-0.1 1-0.1z"/></svg>