<svg version="1.2" xmlns="http://www.w3.org/2000/svg" viewBox="0 0 256 18"><path d="m0.9 14h-0.8v-13.4h1.1l4.6 7.8h0.1l4.5-7.8h1.1v13.4h-0.8v-12.4l-1.7 2.9-3.2 5.4-3.2-5.4-1.7-2.9zm21.6 0.2q-1.6 0-2.4-0.9-0.9-1-0.9-2.8v-6.3h0.8v6.2q0 1.6 0.7 2.4 0.7 0.7 2 0.7 0.8 0 1.4-0.2 0.7-0.3 1.1-0.8 0.4-0.5 0.4-1.4v-6.9h0.7v9.8h-0.7v-1.5h-0.1q-0.3 0.7-1 1.2-0.7 0.5-2 0.5zm14.3 0q-1.3 0-2.2-0.4-0.9-0.5-1.5-1.4l0.5-0.4q0.7 0.8 1.4 1.2 0.8 0.4 1.8 0.4 1.2 0 1.9-0.6 0.7-0.5 0.7-1.5 0-0.9-0.6-1.4-0.5-0.5-1.7-0.6l-0.8-0.2q-0.8-0.1-1.5-0.4-0.7-0.3-1-0.9-0.4-0.5-0.4-1.4 0-1.3 0.9-2 1-0.6 2.3-0.6 0.9 0 1.5 0.2 0.6 0.2 1 0.5 0.5 0.3 0.8 0.8l-0.5 0.4q-0.4-0.4-1.1-0.8-0.6-0.4-1.7-0.4-1.1 0-1.8 0.5-0.6 0.5-0.6 1.4 0 0.9 0.5 1.4 0.6 0.4 1.7 0.6l0.9 0.1q1.4 0.2 2.1 0.9 0.7 0.6 0.7 1.9 0 0.8-0.4 1.5-0.4 0.6-1.2 0.9-0.7 0.3-1.7 0.3zm11.1-0.2h-0.8v-9.8h0.8zm-0.4-12.7q-0.3 0-0.5-0.1-0.1-0.2-0.1-0.4v-0.2q0-0.3 0.1-0.4 0.2-0.2 0.5-0.2 0.3 0 0.4 0.2 0.2 0.1 0.2 0.4v0.2q0 0.2-0.2 0.4-0.1 0.1-0.4 0.1zm11.5 12.9q-2 0-3.1-1.3-1.1-1.3-1.1-3.8 0-2.5 1.1-3.8 1.1-1.3 3.1-1.3 1.2 0 2.1 0.6 0.8 0.5 1.2 1.5l-0.6 0.3q-0.4-0.8-1.1-1.3-0.6-0.4-1.6-0.4-1.6 0-2.5 1.1-0.9 1-0.9 2.7v1.2q0 1.7 0.9 2.8 0.9 1 2.5 1 1 0 1.7-0.4 0.7-0.4 1.2-1.3l0.6 0.4q-0.5 0.9-1.4 1.5-0.8 0.5-2.1 0.5zm12.4 0q-1.5 0-2.4-0.7-0.8-0.7-0.8-2.1 0-0.8 0.4-1.5 0.4-0.6 1.2-0.9 0.9-0.4 2.3-0.4h2.4v-1.3q0-1.3-0.6-2-0.7-0.6-2-0.6-1 0-1.7 0.4-0.7 0.4-1.1 1.3l-0.5-0.4q0.4-0.9 1.2-1.4 0.8-0.6 2.1-0.6 1.7 0 2.5 0.8 0.9 0.9 0.9 2.4v6.1h1.5v0.7h-1.3q-0.5 0-0.7-0.2-0.2-0.2-0.2-0.7v-0.6h-0.1q-0.3 0.8-1.1 1.3-0.7 0.4-2 0.4zm0.1-0.6q0.8 0 1.5-0.3 0.7-0.3 1.1-0.8 0.4-0.6 0.4-1.3v-2h-2.4q-1.6 0-2.3 0.5-0.7 0.6-0.7 1.5v0.5q0 0.9 0.6 1.4 0.7 0.5 1.8 0.5zm20.9 4.3h-1.4v-0.7h1.7l1.1-3-3.7-10h0.8l2.2 5.9 1.1 3.1 1.1-3 2.2-6h0.8l-4.8 12.9q-0.1 0.3-0.2 0.5-0.2 0.1-0.4 0.2-0.2 0.1-0.5 0.1zm24-3.7q-2 0-3.1-1.3-1.1-1.3-1.1-3.8 0-2.5 1.1-3.8 1.1-1.3 3.1-1.3 1.3 0 2.1 0.6 0.8 0.5 1.3 1.5l-0.7 0.3q-0.4-0.8-1.1-1.3-0.6-0.4-1.6-0.4-1.6 0-2.5 1.1-0.8 1-0.8 2.7v1.2q0 1.7 0.8 2.8 0.9 1 2.5 1 1.1 0 1.8-0.4 0.7-0.4 1.1-1.3l0.6 0.4q-0.5 0.9-1.3 1.5-0.9 0.5-2.2 0.5zm13.3 0q-1.3 0-2.2-0.5-1-0.7-1.5-1.8-0.5-1.1-0.5-2.8 0-1.6 0.5-2.8 0.5-1.1 1.5-1.7 0.9-0.6 2.2-0.6 1.3 0 2.2 0.6 1 0.6 1.5 1.7 0.5 1.2 0.5 2.8 0 1.7-0.5 2.8-0.5 1.1-1.5 1.8-0.9 0.5-2.2 0.5zm0-0.7q1.6 0 2.4-1 0.9-1 0.9-2.8v-1.1q0-1.9-0.9-2.9-0.8-1-2.4-1-1.6 0-2.5 1-0.8 1-0.8 2.9v1.1q0 1.8 0.8 2.8 0.9 1 2.5 1zm11.9 0.5h-0.8v-9.8h0.8v1.5h0.1q0.2-0.7 0.9-1.2 0.7-0.5 1.9-0.5 1.1 0 1.9 0.5 0.8 0.5 1.2 1.6 0.3-0.9 1.1-1.5 0.7-0.6 2.1-0.6 1.6 0 2.4 1 0.9 0.9 0.9 2.7v6.3h-0.8v-6.1q0-1.7-0.7-2.4-0.7-0.8-2-0.8-0.7 0-1.4 0.3-0.6 0.2-1 0.8-0.4 0.5-0.4 1.3v6.9h-0.8v-6.1q0-1.7-0.7-2.4-0.6-0.8-1.9-0.8-0.8 0-1.4 0.3-0.6 0.2-1 0.8-0.4 0.5-0.4 1.3zm20.8 3.8h-0.7v-13.6h0.7v1.5h0.1q0.3-0.7 1.1-1.2 0.8-0.5 2-0.5 1.2 0 2.1 0.6 1 0.5 1.4 1.7 0.5 1.1 0.5 2.8 0 1.6-0.5 2.8-0.4 1.1-1.4 1.7-0.9 0.6-2.1 0.6-1.2 0-2-0.5-0.8-0.5-1.1-1.3h-0.1zm3-4.3q1.6 0 2.5-1 0.9-1 0.9-2.8v-1.2q0-1.7-0.9-2.8-0.9-1-2.5-1-0.8 0-1.5 0.3-0.6 0.3-1.1 0.8-0.4 0.6-0.4 1.3v4q0 0.7 0.4 1.3 0.5 0.5 1.1 0.8 0.7 0.3 1.5 0.3zm14.5 0.7q-1.2 0-2.2-0.6-0.9-0.6-1.4-1.7-0.5-1.2-0.5-2.8 0-1.6 0.5-2.8 0.5-1.1 1.4-1.7 1-0.6 2.2-0.6 1.3 0 2.3 0.6 0.9 0.6 1.4 1.7 0.5 1.2 0.5 2.8 0 1.6-0.5 2.8-0.5 1.1-1.4 1.7-1 0.6-2.3 0.6zm0-0.7q1.6 0 2.5-1 0.9-1 0.9-2.9v-1q0-1.9-0.9-2.9-0.9-1-2.5-1-1.5 0-2.4 1-0.9 1-0.9 2.9v1q0 1.9 0.9 2.9 0.9 1 2.4 1zm13.8 0.7q-1.2 0-2.1-0.4-0.9-0.5-1.6-1.4l0.6-0.5q0.7 0.9 1.4 1.3 0.8 0.4 1.8 0.4 1.2 0 1.9-0.6 0.6-0.5 0.6-1.5 0-0.9-0.5-1.4-0.5-0.5-1.7-0.7l-0.8-0.1q-0.9-0.1-1.5-0.4-0.7-0.3-1.1-0.9-0.3-0.5-0.3-1.4 0-1.3 0.9-2 1-0.6 2.3-0.6 0.9 0 1.4 0.2 0.7 0.2 1.1 0.5 0.5 0.3 0.8 0.7l-0.5 0.5q-0.4-0.5-1.1-0.8-0.6-0.4-1.7-0.4-1.1 0-1.8 0.5-0.6 0.5-0.6 1.4 0 0.9 0.5 1.4 0.6 0.4 1.7 0.6l0.8 0.1q1.4 0.2 2.2 0.9 0.7 0.6 0.7 1.8 0 0.9-0.4 1.5-0.4 0.7-1.2 1-0.7 0.3-1.8 0.3zm11.2-0.2h-0.8v-9.8h0.8zm-0.4-12.7q-0.4 0-0.5-0.2-0.1-0.1-0.1-0.4v-0.1q0-0.3 0.1-0.4 0.1-0.2 0.5-0.2 0.3 0 0.4 0.2 0.2 0.1 0.2 0.4v0.1q0 0.3-0.2 0.4-0.1 0.2-0.4 0.2zm11.4 12.7h-1.9q-0.5 0-0.7-0.2-0.3-0.3-0.3-0.7v-8.2h-1.7v-0.7h1.2q0.4 0 0.5-0.1 0.1-0.2 0.1-0.5v-2.1h0.7v2.7h2.3v0.7h-2.3v8.4h2.1zm10.2 0.2q-1.3 0-2.3-0.5-0.9-0.6-1.4-1.8-0.5-1.1-0.5-2.8 0-1.6 0.5-2.8 0.5-1.1 1.4-1.7 1-0.6 2.3-0.6 1.3 0 2.2 0.6 0.9 0.6 1.4 1.7 0.6 1.2 0.6 2.8 0 1.7-0.6 2.8-0.5 1.2-1.4 1.8-0.9 0.5-2.2 0.5zm0-0.6q1.5 0 2.4-1.1 0.9-1 0.9-2.8v-1.1q0-1.9-0.9-2.9-0.9-1-2.4-1-1.6 0-2.5 1-0.9 1-0.9 2.9v1.1q0 1.8 0.9 2.8 0.9 1.1 2.5 1.1zm11.9 0.4h-0.8v-9.8h0.8v1.8q0.3-0.5 0.6-0.9 0.4-0.4 1-0.6 0.6-0.3 1.4-0.3h0.7v0.8h-0.8q-0.8 0-1.5 0.3-0.6 0.2-1 0.7-0.4 0.5-0.4 1.3zm12.2 0.2q-1.5 0-2.3-0.7-0.9-0.8-0.9-2.1 0-0.8 0.4-1.5 0.4-0.6 1.2-1 0.9-0.3 2.3-0.3h2.5v-1.3q0-1.3-0.7-2-0.7-0.6-2-0.6-1 0-1.7 0.4-0.7 0.4-1.1 1.3l-0.5-0.4q0.4-0.9 1.2-1.5 0.8-0.5 2.2-0.5 1.6 0 2.5 0.8 0.8 0.9 0.8 2.4v6.1h1.5v0.7h-1.3q-0.4 0-0.6-0.2-0.3-0.3-0.3-0.7v-0.6h-0.1q-0.3 0.7-1.1 1.3-0.7 0.4-2 0.4zm0.1-0.6q0.9 0 1.5-0.3 0.7-0.3 1.1-0.8 0.5-0.6 0.5-1.4v-1.9h-2.5q-1.6 0-2.3 0.5-0.7 0.6-0.7 1.4v0.6q0 0.9 0.7 1.4 0.6 0.5 1.7 0.5z"/></svg>