<svg version="1.2" xmlns="http://www.w3.org/2000/svg" viewBox="0 0 256 18"><path class="a" d="m11.8 0.5v2.3q-1-1-2.2-1.5-1.3-0.5-2.6-0.5-2.7 0-4.1 1.6-1.5 1.7-1.5 4.8 0 3.1 1.5 4.7 1.4 1.7 4.1 1.7 1.3 0 2.6-0.5 1.2-0.5 2.2-1.5v2.2q-1.1 0.7-2.3 1.1-1.3 0.4-2.6 0.4-3.6 0-5.7-2.2-2-2.1-2-5.9 0-3.8 2-6 2.1-2.1 5.7-2.1 1.4 0 2.6 0.3 1.2 0.4 2.3 1.1zm26 8.6h-1.9q-2.4 0-3.3 0.5-0.9 0.6-0.9 1.9 0 1 0.7 1.6 0.7 0.6 1.8 0.6 1.6 0 2.6-1.1 1-1.2 1-3.1zm1.9-0.8v6.7h-1.9v-1.8q-0.7 1.1-1.7 1.6-1 0.5-2.4 0.5-1.8 0-2.9-1-1-1-1-2.7 0-2 1.3-3 1.3-1 4-1h2.7v-0.2q0-1.3-0.9-2-0.9-0.8-2.5-0.8-1 0-1.9 0.3-1 0.2-1.9 0.7v-1.8q1.1-0.4 2.1-0.6 1-0.2 1.9-0.2 2.6 0 3.8 1.3 1.3 1.3 1.3 4zm29.2-0.4v7.1h-1.9v-7q0-1.7-0.6-2.5-0.7-0.8-2-0.8-1.6 0-2.5 1-0.9 1-0.9 2.7v6.6h-1.9v-11.7h1.9v1.8q0.7-1.1 1.7-1.6 0.9-0.5 2.1-0.5 2.1 0 3.1 1.3 1 1.2 1 3.6zm19.3-8h2v3.4h4v1.5h-4v6.4q0 1.4 0.4 1.8 0.4 0.4 1.6 0.4h2v1.6h-2q-2.3 0-3.1-0.8-0.9-0.8-0.9-3v-6.4h-1.4v-1.5h1.4zm31.2 9.2h-1.9q-2.3 0-3.2 0.5-0.9 0.5-0.9 1.8 0 1 0.6 1.7 0.7 0.6 1.9 0.6 1.6 0 2.6-1.2 0.9-1.1 0.9-3zm2-0.8v6.7h-2v-1.8q-0.6 1.1-1.6 1.6-1 0.5-2.4 0.5-1.8 0-2.9-1-1.1-1-1.1-2.7 0-2 1.4-3 1.3-1 3.9-1h2.7v-0.2q0-1.3-0.8-2.1-0.9-0.7-2.5-0.7-1 0-2 0.2-0.9 0.3-1.8 0.8v-1.8q1.1-0.4 2.1-0.6 1-0.2 1.9-0.2 2.6 0 3.8 1.3 1.3 1.3 1.3 4zm19.2 2.1v-7.2h2v7.1q0 1.7 0.6 2.5 0.7 0.8 2 0.8 1.5 0 2.4-1 0.9-1 0.9-2.7v-6.7h2v11.8h-2v-1.8q-0.7 1.1-1.6 1.6-0.9 0.5-2.1 0.5-2.1 0-3.1-1.3-1.1-1.2-1.1-3.6zm4.9-7.4zm24.4-3.1h1.9v3.3h4v1.5h-4v6.4q0 1.5 0.4 1.9 0.4 0.4 1.6 0.4h2v1.6h-2q-2.2 0-3-0.8-0.9-0.9-0.9-3.1v-6.4h-1.4v-1.5h1.4zm28.5 4.7q-1.5 0-2.5 1.3-0.9 1.2-0.9 3.3 0 2.1 0.9 3.3 0.9 1.2 2.5 1.2 1.5 0 2.4-1.2 1-1.2 1-3.3 0-2.1-1-3.3-0.9-1.3-2.4-1.3zm0-1.6q2.5 0 4 1.6 1.4 1.7 1.4 4.6 0 2.9-1.4 4.5-1.5 1.6-4 1.6-2.5 0-4-1.6-1.4-1.6-1.4-4.5 0-2.9 1.4-4.6 1.5-1.6 4-1.6zm30.9 0.1v2q-0.3-0.2-0.7-0.3-0.4-0.1-0.9-0.1-1.6 0-2.5 1.1-0.9 1-0.9 3v6.2h-1.9v-11.7h1.9v1.8q0.7-1.1 1.6-1.6 1-0.5 2.4-0.5 0.2 0 0.4 0 0.3 0.1 0.6 0.1zm24.8 6h-2q-2.3 0-3.2 0.6-0.9 0.5-0.9 1.8 0 1 0.7 1.6 0.7 0.6 1.8 0.6 1.6 0 2.6-1.1 1-1.2 1-3zm1.9-0.8v6.7h-1.9v-1.8q-0.7 1-1.7 1.6-1 0.5-2.4 0.5-1.8 0-2.9-1-1-1.1-1-2.8 0-1.9 1.3-2.9 1.3-1.1 4-1.1h2.7v-0.1q0-1.4-0.9-2.1-0.9-0.7-2.5-0.7-1 0-1.9 0.2-1 0.2-1.9 0.7v-1.8q1.1-0.4 2.1-0.6 1-0.2 1.9-0.2 2.6 0 3.8 1.4 1.3 1.3 1.3 4z"/></svg>