<svg version="1.2" xmlns="http://www.w3.org/2000/svg" viewBox="0 0 256 107"><path class="a" d="m8.9 105q-8.9 0-8.9-9v-77.8q0-9.1 8.9-9.1h2q6.8 0 10.8 5.9l39 58.9v-55.7q0-9.1 9.1-9.1 8.9 0 8.9 9.1v77.8q0 9-8.5 9h-1.5q-7.1 0-10.8-5.9l-40.1-61.1v58q0 9-8.9 9zm116 1.5q-14.5 0-23.6-8.5-9-8.6-9-26 0-10.8 3.9-18.5 4.2-7.8 11.3-11.9 7.1-4.2 16.4-4.2 9.3 0 15.8 4.2 6.6 4.2 10 11 3.4 6.5 3.4 13.9 0 5.9-2.3 7.6-2.3 1.6-6.7 1.6h-34.8q0.6 9.2 4.9 12.6 4.4 3.3 11 3.3 7.2 0 11.5-4.3 3.1-3.1 5.7-4.1 2.8-0.9 5.8 1.3 3.1 2.2 3.4 5.6 0.4 3.3-2.9 6.8-4.6 5.1-10.7 7.4-5.8 2.2-13.1 2.2zm-15-44h26.2q-2.4-11.7-12.4-11.7-5.5 0-9 2.7-3.4 2.8-4.8 9zm65.7 42.5q-8.6 0-8.6-9v-79.3q0-9.1 8.6-9.1 8.6 0 8.6 9.1v79.3q0 9-8.6 9zm46.7 1.5q-10.2 0-16.8-6.6-6.5-6.5-6.5-19.4v-32.5q0-9 8.7-9 8.6 0 8.6 9v28.4q0 7.1 2.9 10.8 2.9 3.7 7.5 3.7 5.2 0 8.5-3.7 3.4-3.8 3.4-11.9v-27.3q0-9 8.7-9 8.6 0 8.6 9v48q0 9-7.7 9-7.6 0-8-3.7l-0.6-3.7q-2.6 3.4-7 6.2-4.2 2.7-10.3 2.7zm24.3-93.4l-24.3 16.7q-4.2 2.9-6.8-0.1-2.5-2.9 1.1-6.7l20.5-21.1q4-4.1 7.7 0.3l2.8 3.2q3.7 4.4-1 7.7z"/></svg>